<?xml version="1.0" encoding="UTF-8"?>
<svg width="58px" height="49px" viewBox="0 0 58 49" version="1.1" xmlns="http://www.w3.org/2000/svg" xmlns:xlink="http://www.w3.org/1999/xlink">
    <!-- Generator: Sketch 50.2 (55047) - http://www.bohemiancoding.com/sketch -->
    <title>equipment</title>
    <desc>Created with Sketch.</desc>
    <defs></defs>
    <g id="equipment" stroke="none" stroke-width="1" fill="none" fill-rule="evenodd">
        <g id="Group" transform="translate(0.000000, -1.000000)" fill="#FFFFFF">
            <path d="M1.6321158,15.7439804 C3.52004489,17.0729381 6.44967812,18.0391055 10.4210155,18.6424826 C7.84446527,16.0756046 5.84196314,13.5087267 4.4135091,10.9418487 C9.27720736,3.92677852 16.0458617,0.284529668 24.7194721,0.0151021952 C42.2917634,-0.530744093 49.0359938,13.8657126 58,19.564982 C56.213713,19.564982 50.2024201,18.912898 43.3119702,21.3397341 C38.9600963,22.8724765 34.7385407,27.5461277 29.4866253,28.3332359 C25.8936763,28.8717136 22.8136605,23.8337443 19.0276626,24.5013785 C14.4880299,25.301911 12.9870471,32 8.01587175,32 C5.1273169,32 2.45535965,27.854994 0,19.564982 C0.505003641,18.2221999 1.04904293,16.9485325 1.63211787,15.7439796 Z M33.6228719,17.5067834 C37.3498892,17.5067834 38.9974536,17.5067834 42.9565221,17.5067834 C40.6236328,13.7896349 34.520956,10.8151325 24.6484917,8.58327625 C29.9345298,10.8067503 32.9259899,13.7812526 33.6228719,17.5067834 Z" id="Combined-Shape"></path>
            <path d="M13.0333037,33.1469517 L14.9666963,30.8530483 C16.1873167,31.8818354 17.0101606,32.933635 17.5881657,34.1327662 C17.9169883,34.8149426 18.1178071,35.3981085 18.4292685,36.4650651 C19.1448126,38.916266 19.5968065,39.9008493 21.0328201,41.521526 C23.4779072,44.2810373 25.9244784,45.9394414 28.3612815,46.5441581 L27.6387185,49.4558419 C24.553283,48.6901607 21.6066071,46.6927615 18.7874387,43.5110643 C16.9947212,41.4878135 16.3783181,40.1450957 15.5494614,37.3057261 C15.2816581,36.3883266 15.1230517,35.9277431 14.8857296,35.4353941 C14.4931737,34.6209962 13.9336813,33.9058256 13.0333037,33.1469517 Z" id="Path-15" fill-rule="nonzero"></path>
            <path d="M24.6540586,30.3378507 L27.3459414,31.6621493 C27.3464727,31.6610695 27.3288908,31.8435237 27.3255772,32.390752 C27.3116103,34.6973702 26.9815378,36.1803995 25.5975948,38.1458206 C24.1485498,40.203697 22.6669269,42.1417717 21.1525893,43.9599677 L18.8474107,42.0400323 C20.3090781,40.2850751 21.7415489,38.4112951 23.144686,36.4186152 C24.1089965,35.0491396 24.3150307,34.1234197 24.3256322,32.3725869 C24.3320726,31.3089626 24.3700147,30.9152226 24.6540586,30.3378507 Z" id="Path-16" fill-rule="nonzero"></path>
        </g>
    </g>
</svg>