<?xml version="1.0" encoding="UTF-8"?>
<svg width="65px" height="50px" viewBox="0 0 65 50" version="1.1" xmlns="http://www.w3.org/2000/svg" xmlns:xlink="http://www.w3.org/1999/xlink">
    <!-- Generator: Sketch 49 (51002) - http://www.bohemiancoding.com/sketch -->
    <title>Group</title>
    <desc>Created with Sketch.</desc>
    <defs></defs>
    <g id="Page-1" stroke="none" stroke-width="1" fill="none" fill-rule="evenodd" stroke-linecap="round" stroke-linejoin="round">
        <g id="Artboard" transform="translate(-73.000000, -24.000000)" stroke="#FFFFFF" stroke-width="2">
            <g id="Group" transform="translate(74.000000, 25.000000)">
                <path d="M45,29.2173913 L45,42 L19,42 L19,29.2173913 C19,22.1577515 24.8202983,16.4347826 32,16.4347826 C39.1797017,16.4347826 45,22.1577515 45,29.2173913 Z M32,14.6086957 C27.8973133,14.6086957 24.5714286,11.3384277 24.5714286,7.30434783 C24.5714286,3.27026791 27.8973133,0 32,0 C36.1026867,0 39.4285714,3.27026791 39.4285714,7.30434783 C39.4285714,11.3384277 36.1026867,14.6086957 32,14.6086957 Z" id="Combined-Shape-Copy-2"></path>
                <path d="M26,35.2173913 L26,48 L0,48 L0,35.2173913 C1.80931216e-14,28.1577515 5.82029825,22.4347826 13,22.4347826 C20.1797017,22.4347826 26,28.1577515 26,35.2173913 Z M13,20.6086957 C8.89731329,20.6086957 5.57142857,17.3384277 5.57142857,13.3043478 C5.57142857,9.27026791 8.89731329,6 13,6 C17.1026867,6 20.4285714,9.27026791 20.4285714,13.3043478 C20.4285714,17.3384277 17.1026867,20.6086957 13,20.6086957 Z" id="Combined-Shape" fill="#FFFFFF"></path>
                <path d="M63,35.2173913 L63,48 L37,48 L37,35.2173913 C37,28.1577515 42.8202983,22.4347826 50,22.4347826 C57.1797017,22.4347826 63,28.1577515 63,35.2173913 Z M50,20.6086957 C45.8973133,20.6086957 42.5714286,17.3384277 42.5714286,13.3043478 C42.5714286,9.27026791 45.8973133,6 50,6 C54.1026867,6 57.4285714,9.27026791 57.4285714,13.3043478 C57.4285714,17.3384277 54.1026867,20.6086957 50,20.6086957 Z" id="Combined-Shape-Copy" fill="#FFFFFF"></path>
            </g>
        </g>
    </g>
</svg>