<?xml version="1.0"?>
<svg xmlns="http://www.w3.org/2000/svg" width="512" height="512" viewBox="0 0 512 512"><g><path d="M352,8H160a40.04,40.04,0,0,0-40,40V464a40.04,40.04,0,0,0,40,40H352a40.04,40.04,0,0,0,40-40V48A40.04,40.04,0,0,0,352,8ZM293.75,24l-4,16h-67.5l-4-16ZM376,464a24.032,24.032,0,0,1-24,24H160a24.032,24.032,0,0,1-24-24V48a24.032,24.032,0,0,1,24-24h41.75l6.49,25.94A8,8,0,0,0,216,56h80a8,8,0,0,0,7.76-6.06L310.25,24H352a24.032,24.032,0,0,1,24,24Z"/><path d="M216,464H161a8,8,0,0,0,0,16h55a8,8,0,0,0,0-16Z"/><path d="M248,464h-8a8,8,0,0,0,0,16h8a8,8,0,0,0,0-16Z"/><path d="M240,128a8,8,0,0,0-8,8v24h-8V136a8,8,0,0,0-16,0v24h-8V136a8,8,0,0,0-16,0v52a28.043,28.043,0,0,0,24,27.71v17.67A24.031,24.031,0,0,0,192,256v96a24,24,0,0,0,48,0V256a24.031,24.031,0,0,0-16-22.62V215.71A28.043,28.043,0,0,0,248,188V136A8,8,0,0,0,240,128ZM224,352a8,8,0,0,1-16,0V256a8,8,0,0,1,16,0Zm8-164a12.01,12.01,0,0,1-12,12h-8a12.01,12.01,0,0,1-12-12V176h32Z"/><path d="M320,128a56.064,56.064,0,0,0-56,56v80a8,8,0,0,0,8,8h16v9.376A24.038,24.038,0,0,0,272,304v48a24,24,0,0,0,48,0V304a24.038,24.038,0,0,0-16-22.624V272h16a8,8,0,0,0,8-8V136A8,8,0,0,0,320,128ZM304,352a8,8,0,0,1-16,0V304a8,8,0,0,1,16,0Zm8-96H280V184a40.071,40.071,0,0,1,32-39.2Z"/></g></svg>
