<svg preserveAspectRatio="xMidYMid meet" data-bbox="0 0 63 108" viewBox="0 0 63 108" height="108" width="63" xmlns="http://www.w3.org/2000/svg" data-type="ugc" role="img">
    <g>
        <path fill="#333333" d="M57 2a4 4 0 0 1 4 4v96a4 4 0 0 1-4 4H6a4 4 0 0 1-4-4V6a4 4 0 0 1 4-4h51m0-2H6a6 6 0 0 0-6 6v96a6 6 0 0 0 6 6h51a6 6 0 0 0 6-6V6a6 6 0 0 0-6-6z"></path>
        <path stroke-width="2" stroke-miterlimit="10" stroke="#333333" fill="none" d="M.5 18h62"></path>
        <path stroke-width="2" stroke-miterlimit="10" stroke-linecap="round" stroke="#333333" fill="none" d="M25.22 9h12"></path>
        <path stroke-width="2" stroke-miterlimit="10" stroke="#333333" fill="none" d="M.22 90h62"></path>
        <path fill="#333333" d="M35.22 98a4 4 0 1 1-8 0 4 4 0 0 1 8 0z"></path>
        <path fill="#d70f64" d="M32.36 73l10.8-18.75A13.5 13.5 0 0 0 31.5 34a13.5 13.5 0 0 0-11.69 20.25L30.63 73a1 1 0 0 0 1.73 0z"></path>
        <path fill="#ffffff" d="M38.5 47a7 7 0 1 1-14 0 7 7 0 0 1 14 0z"></path>
    </g>
</svg>