<svg preserveAspectRatio="xMidYMid meet" data-bbox="54.691 78.643 293.812 245.908" viewBox="54.691 78.643 293.812 245.908"  height="100" width="100" xmlns="http://www.w3.org/2000/svg" data-type="color" role="img"><defs><style>#comp-jv3hcjck svg [data-color="1"] {fill: #000000;}</style></defs>
    <g>
        <path fill-rule="evenodd" fill="#9b9a9a" d="M184.032 79.042c0 .239-1.597.399-3.992.399s-3.992.16-3.992.399c0 .233-1.331.4-3.194.4s-3.193.166-3.193.399c0 .222-1.065.399-2.396.399-1.33 0-2.395.177-2.395.399 0 .22-.898.399-1.996.399-1.098 0-1.996.18-1.996.4 0 .219-.898.399-1.996.399-1.098 0-1.996.179-1.996.399 0 .219-.718.399-1.597.399-.878 0-1.596.18-1.596.399 0 .22-.719.4-1.597.4s-1.597.179-1.597.399c0 .219-.719.399-1.597.399s-1.597.18-1.597.399c0 .22-.718.399-1.596.399-.879 0-1.597.18-1.597.4 0 .219-.539.399-1.198.399-.659 0-1.197.179-1.197.399 0 .22-.539.399-1.198.399-.659 0-1.198.18-1.198.399 0 .22-.539.4-1.197.4-.659 0-1.198.179-1.198.399 0 .219-.539.399-1.197.399-.659 0-1.198.18-1.198.399 0 .22-.539.399-1.198.399-.658 0-1.197.18-1.197.4 0 .219-.539.399-1.198.399-.659 0-1.197.179-1.197.399 0 .22-.36.399-.799.399-.439 0-.798.18-.798.399 0 .22-.539.4-1.198.4-.659 0-1.197.179-1.197.399 0 .219-.36.399-.799.399-.439 0-.798.18-.798.399 0 .22-.539.399-1.198.399-.659 0-1.198.18-1.198.4 0 .219-.359.399-.798.399-.439 0-.798.179-.798.399 0 .22-.36.399-.799.399-.439 0-.798.18-.798.399 0 .22-.359.4-.799.4-.439 0-.798.179-.798.399 0 .219-.359.399-.798.399-.439 0-.799.18-.799.399 0 .22-.359.399-.798.399-.439 0-.799.18-.799.4 0 .219-.359.399-.798.399-.439 0-.798.179-.798.399 0 .22-.36.399-.799.399-.439 0-.798.18-.798.399 0 .22-.32.4-.71.4-.391 0-.97.359-1.286.798-.317.439-.895.798-1.286.798s-.71.18-.71.4c0 .219-.32.399-.71.399-.391 0-.97.359-1.286.798-.317.439-.856.799-1.198.799-.342 0-.881.359-1.197.798-.317.439-.856.798-1.198.798-.342 0-.881.36-1.198.799-.316.439-.823.798-1.125.798-.303 0-1.054.539-1.669 1.198-.615.659-1.326 1.197-1.579 1.197-.254 0-1.519 1.078-2.812 2.396-1.293 1.317-2.546 2.395-2.783 2.395-.562 0-4.004 3.441-4.004 4.003 0 .238-1.078 1.49-2.395 2.783s-2.395 2.559-2.395 2.812c0 .253-.539.964-1.198 1.58-.658.615-1.197 1.333-1.197 1.596 0 .263-.539.982-1.198 1.597-.659.615-1.197 1.366-1.197 1.669 0 .303-.36.809-.799 1.126-.439.316-.798.895-.798 1.285 0 .391-.18.711-.4.711-.219 0-.399.319-.399.71 0 .39-.359.969-.798 1.286-.439.316-.799.895-.799 1.285 0 .391-.179.711-.399.711-.219 0-.399.359-.399.798 0 .439-.18.798-.399.798-.22 0-.399.36-.399.799 0 .439-.18.798-.4.798-.219 0-.399.359-.399.799 0 .439-.179.798-.399.798-.219 0-.399.359-.399.798 0 .439-.18.799-.399.799-.22 0-.4.539-.4 1.197 0 .659-.179 1.198-.399 1.198-.219 0-.399.359-.399.798 0 .44-.18.799-.399.799-.22 0-.399.539-.399 1.197 0 .659-.18 1.198-.4 1.198-.219 0-.399.539-.399 1.198 0 .658-.179 1.197-.399 1.197-.219 0-.399.719-.399 1.597s-.18 1.597-.399 1.597c-.22 0-.4.718-.4 1.597 0 .878-.179 1.596-.399 1.596-.253 0-.399 2.928-.399 7.984 0 5.057.146 7.985.399 7.985.22 0 .399.538.399 1.197s.18 1.198.4 1.198c.219 0 .399.359.399.798 0 .439.18.799.399.799.22 0 .399.274.399.609 0 .694 3.344 4.181 4.01 4.181.457 0 1.579.972 1.579 1.369 0 .125-2.335.228-5.19.228-3.193 0-5.189.153-5.189.399 0 .22-.274.399-.609.399-.336 0-1.413.804-2.396 1.786-.982.982-1.786 2.06-1.786 2.395 0 .335-.179.61-.399.61-.219 0-.399.538-.399 1.197s-.18 1.198-.399 1.198c-.22 0-.399.898-.399 1.996 0 1.098.179 1.996.399 1.996.219 0 .399.718.399 1.597 0 .878.18 1.596.399 1.596.22 0 .399.276.399.613 0 .794 2.586 3.379 3.38 3.379.337 0 .612.18.612.4 0 .219.539.399 1.198.399.659 0 1.198.179 1.198.399 0 .604 3.002.478 5.123-.216 1.601-.523 4.488-.597 19.465-.499l17.586.116 2.354 1.205c2.856 1.461 4.46 3.463 7.564 9.436 5.148 9.908 9.607 13.112 18.252 13.112 7.573 0 11.308-2.619 17.68-12.399 5.9-9.055 8.666-10.916 16.167-10.878 7.027.036 9.891 1.575 15.359 8.252 5.017 6.126 7.998 7.839 13.641 7.839 7.674 0 11.772-2.447 16.711-9.98 2.704-4.123 4.174-5.705 5.912-6.362 1.922-.726 115.406-.547 117.439.186 1.84.663 4.591.775 4.591.188 0-.22.539-.399 1.198-.399.658 0 1.197-.18 1.197-.399 0-.22.276-.4.612-.4.337 0 1.235-.622 1.996-1.383.761-.762 1.384-1.66 1.384-1.996 0-.337.18-.613.399-.613.22 0 .4-.359.4-.798 0-.439.179-.798.399-.798.233 0 .399-1.331.399-3.194s-.166-3.194-.399-3.194c-.22 0-.399-.539-.399-1.197 0-.659-.18-1.198-.4-1.198-.219 0-.399-.277-.399-.617 0-.798-1.778-2.576-2.576-2.576-.34 0-.617-.18-.617-.4 0-.219-.36-.399-.799-.399-.439 0-.798-.179-.798-.399 0-.246-1.996-.399-5.19-.399-3.193 0-5.189-.154-5.189-.399 0-.22.272-.4.606-.4.789 0 5.781-4.991 5.781-5.781 0-.333.179-.606.399-.606.22 0 .399-.539.399-1.197 0-.659.18-1.198.399-1.198.22 0 .4-.719.4-1.597s.179-1.597.399-1.597c.244 0 .399-1.863.399-4.79 0-2.928-.155-4.791-.399-4.791-.222 0-.399-1.064-.399-2.395 0-1.33-.178-2.395-.4-2.395-.219 0-.399-.719-.399-1.597s-.179-1.597-.399-1.597c-.22 0-.399-.718-.399-1.596 0-.879-.18-1.597-.399-1.597-.22 0-.4-.539-.4-1.198 0-.658-.179-1.197-.399-1.197-.219 0-.399-.539-.399-1.198 0-.659-.18-1.198-.399-1.198-.22 0-.399-.359-.399-.798 0-.439-.18-.798-.4-.798-.219 0-.399-.36-.399-.799 0-.439-.18-.798-.399-.798-.22 0-.399-.36-.399-.799 0-.439-.18-.798-.399-.798-.22 0-.4-.359-.4-.798 0-.44-.179-.799-.399-.799-.219 0-.399-.359-.399-.798 0-.439-.18-.799-.399-.799-.22 0-.399-.359-.399-.798 0-.439-.18-.798-.4-.798-.219 0-.399-.36-.399-.799 0-.439-.18-.798-.399-.798-.22 0-.399-.32-.399-.711 0-.39-.36-.969-.799-1.285-.439-.317-.798-.895-.798-1.286s-.18-.71-.399-.71c-.22 0-.399-.287-.399-.639 0-.351-.539-1.141-1.198-1.756-.659-.616-1.198-1.334-1.198-1.597 0-.263-.539-.982-1.197-1.597-.659-.615-1.198-1.33-1.198-1.589 0-.258-.718-1.16-1.597-2.004-.878-.844-1.597-1.73-1.597-1.969 0-.568-8.241-8.809-8.809-8.809-.239 0-1.125-.719-1.969-1.597-.844-.878-1.746-1.597-2.004-1.597-.259 0-.973-.539-1.589-1.198-.615-.658-1.366-1.197-1.669-1.197-.302 0-.809-.359-1.125-.799-.317-.439-.856-.798-1.198-.798-.342 0-.881-.359-1.197-.798-.317-.44-.895-.799-1.286-.799s-.71-.179-.71-.399c0-.22-.32-.399-.711-.399-.39 0-.969-.359-1.285-.799-.317-.439-.895-.798-1.286-.798s-.71-.18-.71-.399c0-.22-.36-.399-.799-.399-.439 0-.798-.18-.798-.4 0-.219-.36-.399-.799-.399-.439 0-.798-.179-.798-.399 0-.22-.359-.399-.798-.399-.44 0-.799-.18-.799-.399 0-.22-.359-.4-.798-.4-.439 0-.799-.179-.799-.399 0-.219-.359-.399-.798-.399-.439 0-.798-.18-.798-.399 0-.22-.36-.399-.799-.399-.439 0-.798-.18-.798-.4 0-.219-.36-.399-.799-.399-.439 0-.798-.179-.798-.399 0-.22-.359-.399-.798-.399-.44 0-.799-.18-.799-.399 0-.22-.359-.4-.798-.4-.439 0-.799-.179-.799-.399 0-.219-.539-.399-1.197-.399-.659 0-1.198-.18-1.198-.399 0-.22-.359-.399-.798-.399-.439 0-.799-.18-.799-.4 0-.219-.539-.399-1.197-.399-.659 0-1.198-.179-1.198-.399 0-.22-.539-.399-1.198-.399-.658 0-1.197-.18-1.197-.399 0-.22-.359-.4-.799-.4-.439 0-.798-.179-.798-.399 0-.219-.539-.399-1.198-.399-.658 0-1.197-.18-1.197-.399 0-.22-.539-.399-1.198-.399-.658 0-1.197-.18-1.197-.4 0-.219-.719-.399-1.597-.399s-1.597-.179-1.597-.399c0-.22-.539-.399-1.198-.399-.658 0-1.197-.18-1.197-.399 0-.22-.539-.4-1.198-.4-.658 0-1.197-.179-1.197-.399 0-.219-.719-.399-1.597-.399s-1.597-.18-1.597-.399c0-.22-.719-.399-1.597-.399s-1.597-.18-1.597-.4c0-.219-.898-.399-1.996-.399-1.097 0-1.996-.18-1.996-.399 0-.22-.898-.399-1.996-.399-1.097 0-1.996-.18-1.996-.399 0-.22-.898-.4-1.996-.4-1.097 0-1.996-.179-1.996-.399 0-.222-1.064-.399-2.395-.399s-2.395-.177-2.395-.399c0-.233-1.331-.399-3.194-.399s-3.193-.167-3.193-.4c0-.239-1.597-.399-3.992-.399-2.396 0-3.992-.16-3.992-.399 0-.26-6.121-.399-17.565-.399s-17.565.139-17.565.399m22.355 3.992c0 .25 2.529.399 6.787.399s6.786.149 6.786.399c0 .237 1.464.4 3.593.4s3.593.162 3.593.399c0 .228 1.197.399 2.794.399s2.795.171 2.795.399c0 .222 1.064.399 2.395.399 1.33 0 2.395.178 2.395.4 0 .219.898.399 1.996.399 1.098 0 1.996.179 1.996.399 0 .22.898.399 1.996.399 1.098 0 1.996.18 1.996.399 0 .22.719.4 1.597.4s1.597.179 1.597.399c0 .219.718.399 1.596.399.879 0 1.597.18 1.597.399 0 .22.719.399 1.597.399s1.597.18 1.597.4c0 .219.539.399 1.197.399.659 0 1.198.179 1.198.399 0 .22.719.399 1.597.399s1.597.18 1.597.399c0 .22.539.4 1.197.4.659 0 1.198.179 1.198.399 0 .219.539.399 1.197.399.659 0 1.198.18 1.198.399 0 .22.539.399 1.198.399.658 0 1.197.18 1.197.4 0 .219.36.399.799.399.439 0 .798.179.798.399 0 .22.539.399 1.198.399.658 0 1.197.18 1.197.399 0 .22.539.4 1.198.4.659 0 1.197.179 1.197.399 0 .219.36.399.799.399.439 0 .798.18.798.399 0 .22.36.399.799.399.439 0 .798.18.798.4 0 .219.539.399 1.198.399.658 0 1.197.179 1.197.399 0 .22.36.399.799.399.439 0 .798.18.798.399 0 .22.359.4.799.4.439 0 .798.179.798.399 0 .219.359.399.798.399.439 0 .799.18.799.399 0 .22.359.399.798.399.439 0 .799.18.799.4 0 .219.359.399.798.399.439 0 .798.179.798.399 0 .22.36.399.799.399.439 0 .798.18.798.399 0 .22.32.4.71.4.391 0 .97.359 1.286.798.317.439.895.798 1.286.798s.71.18.71.4c0 .219.32.399.71.399.391 0 .97.359 1.286.798.317.439.856.799 1.198.799.342 0 .881.359 1.197.798.317.439.856.798 1.198.798.342 0 .881.36 1.198.799.316.439.823.798 1.125.798.303 0 1.054.539 1.669 1.198.615.659 1.326 1.197 1.579 1.197.254 0 1.519 1.078 2.812 2.396 1.293 1.317 2.547 2.395 2.786 2.395.564 0 3.202 2.636 3.202 3.199 0 .238 1.258 1.672 2.795 3.188 1.537 1.516 2.794 2.962 2.794 3.214 0 .252.539.961 1.198 1.577.658.615 1.197 1.366 1.197 1.668 0 .303.36.809.799 1.126.439.316.798.855.798 1.198 0 .342.359.881.798 1.197.44.317.799.895.799 1.286s.18.71.399.71c.22 0 .399.32.399.71 0 .391.36.97.799 1.286.439.317.798.895.798 1.286s.18.71.399.71c.22 0 .4.359.4.799 0 .439.179.798.399.798.219 0 .399.359.399.798 0 .439.18.799.399.799.22 0 .399.359.399.798 0 .439.18.799.4.799.219 0 .399.359.399.798 0 .439.179.798.399.798.219 0 .399.539.399 1.198 0 .659.18 1.198.399 1.198.22 0 .4.359.4.798 0 .439.179.798.399.798.219 0 .399.539.399 1.198 0 .659.18 1.198.399 1.198.22 0 .399.539.399 1.197 0 .659.18 1.198.4 1.198.219 0 .399.718.399 1.597 0 .878.179 1.596.399 1.596.219 0 .399.899.399 1.996 0 1.098.18 1.996.399 1.996.242 0 .4 1.73.4 4.392 0 2.661-.158 4.391-.4 4.391-.219 0-.399.539-.399 1.197 0 .659-.18 1.198-.399 1.198-.22 0-.399.454-.399 1.009 0 1.075-3.132 4.58-4.093 4.58-.287 0-.78.359-1.097.798-.316.439-.895.799-1.286.799-.39 0-.71.179-.71.399 0 .219-.539.399-1.197.399-.659 0-1.198.18-1.198.399 0 .22-.719.4-1.597.4s-1.597.179-1.597.399c0 .219-.898.399-1.996.399-1.098 0-1.996.18-1.996.399 0 .265-38.855.399-115.768.399-76.913 0-115.769-.134-115.769-.399 0-.219-.898-.399-1.996-.399-1.097 0-1.996-.18-1.996-.399 0-.22-.718-.399-1.596-.399-.879 0-1.597-.18-1.597-.4 0-.219-.36-.399-.799-.399-.439 0-.798-.18-.798-.399 0-.22-.359-.399-.798-.399-.44 0-.799-.18-.799-.399 0-.22-.359-.4-.798-.4-.439 0-.799-.179-.799-.399 0-.219-.275-.399-.612-.399-.794 0-3.38-2.585-3.38-3.38 0-.337-.179-.612-.399-.612-.219 0-.399-.359-.399-.798 0-.44-.18-.799-.399-.799-.22 0-.4-.898-.4-1.996 0-1.098-.179-1.996-.399-1.996-.222 0-.399-1.064-.399-2.395s.177-2.395.399-2.395c.228 0 .399-1.198.399-2.795s.172-2.794.4-2.794c.219 0 .399-.719.399-1.597s.18-1.597.399-1.597c.22 0 .399-.539.399-1.197 0-.659.18-1.198.399-1.198.22 0 .4-.539.4-1.198 0-.658.179-1.197.399-1.197.219 0 .399-.539.399-1.198 0-.658.18-1.197.399-1.197.22 0 .399-.36.399-.799 0-.439.18-.798.4-.798.219 0 .399-.359.399-.799 0-.439.18-.798.399-.798.22 0 .399-.539.399-1.198 0-.658.18-1.197.399-1.197.22 0 .4-.32.4-.71 0-.391.359-.97.798-1.286.439-.317.799-.895.799-1.286s.179-.71.399-.71c.219 0 .399-.36.399-.799 0-.439.18-.798.399-.798.22 0 .399-.32.399-.71 0-.391.36-.97.799-1.286.439-.317.798-.855.798-1.198 0-.342.359-.881.799-1.197.439-.317.798-.856.798-1.198 0-.342.359-.881.798-1.197.439-.317.799-.82.799-1.118 0-.298.718-1.232 1.597-2.076.878-.844 1.596-1.73 1.596-1.968 0-.572 11.44-12.004 12.012-12.004.244 0 .946-.539 1.561-1.198.615-.658 1.334-1.197 1.597-1.197.263 0 .982-.539 1.597-1.198.615-.659 1.366-1.198 1.669-1.198.302 0 .809-.359 1.125-.798.317-.439.895-.798 1.286-.798s.71-.18.71-.4c0-.219.32-.399.711-.399.39 0 .969-.359 1.285-.798.317-.439.895-.799 1.286-.799s.71-.179.71-.399c0-.219.36-.399.799-.399.439 0 .798-.18.798-.399 0-.22.32-.399.71-.399.391 0 .97-.36 1.286-.799.317-.439.895-.798 1.286-.798.39 0 .71-.18.71-.399 0-.22.359-.4.798-.4.44 0 .799-.179.799-.399 0-.219.359-.399.798-.399.439 0 .799-.18.799-.399 0-.22.359-.399.798-.399.439 0 .798-.18.798-.4 0-.219.539-.399 1.198-.399.659 0 1.198-.179 1.198-.399 0-.22.359-.399.798-.399.439 0 .799-.18.799-.399 0-.22.359-.4.798-.4.439 0 .798-.179.798-.399 0-.219.539-.399 1.198-.399.659 0 1.198-.18 1.198-.399 0-.22.359-.399.798-.399.439 0 .798-.18.798-.4 0-.219.539-.399 1.198-.399.659 0 1.198-.179 1.198-.399 0-.22.538-.399 1.197-.399s1.198-.18 1.198-.399c0-.22.359-.4.798-.4.439 0 .799-.179.799-.399 0-.219.538-.399 1.197-.399s1.198-.18 1.198-.399c0-.22.718-.399 1.597-.399.878 0 1.596-.18 1.596-.4 0-.219.539-.399 1.198-.399.659 0 1.198-.179 1.198-.399 0-.22.539-.399 1.197-.399.659 0 1.198-.18 1.198-.399 0-.22.718-.4 1.597-.4.878 0 1.596-.179 1.596-.399 0-.219.719-.399 1.597-.399s1.597-.18 1.597-.399c0-.22.719-.399 1.597-.399s1.597-.18 1.597-.4c0-.219.898-.399 1.996-.399 1.097 0 1.996-.179 1.996-.399 0-.22.898-.399 1.996-.399 1.097 0 1.996-.18 1.996-.399 0-.222 1.064-.4 2.395-.4s2.395-.177 2.395-.399c0-.228 1.198-.399 2.794-.399 1.597 0 2.795-.171 2.795-.399 0-.237 1.464-.399 3.593-.399s3.593-.163 3.593-.4c0-.25 2.528-.399 6.786-.399 4.258 0 6.786-.149 6.786-.399 0-.244 1.863-.399 4.791-.399 2.927 0 4.79.155 4.79.399m15.27 24.561c-.494.528-.899 1.235-.899 1.572 0 .338-.179.613-.399.613-.219 0-.399.994-.399 2.209 0 2.562 1.834 4.977 3.779 4.977.556 0 1.011.18 1.011.399 0 .22.539.399 1.198.399.659 0 1.198-.179 1.198-.399 0-.219.359-.399.798-.399.439 0 .799-.18.799-.399 0-.22.359-.399.798-.399.532 0 .798-.266.798-.799 0-.439.18-.798.4-.798 1.188 0 .412-5.203-.985-6.6-1.836-1.836-6.527-2.054-8.097-.376m-63.972 24.142c0 .219-.462.399-1.027.399-1.155 0-2.167.825-2.167 1.768 0 .345-.18.627-.399.627-1.189 0-.413 5.203.985 6.6 2.727 2.728 8.995 1.619 8.995-1.592 0-.559.179-1.016.399-1.016.22 0 .399-.719.399-1.597s-.179-1.597-.399-1.597c-.22 0-.399-.277-.399-.617 0-.97-1.856-2.576-2.976-2.576-.559 0-1.016-.18-1.016-.399 0-.22-.539-.4-1.198-.4-.658 0-1.197.18-1.197.4m103.493 12.191c-2.425 2.539-1.508 8.966 1.279 8.966.339 0 .617.18.617.399 0 .22.898.4 1.996.4 1.098 0 1.996-.18 1.996-.4 0-.219.277-.399.617-.399 2.849 0 3.708-6.479 1.193-8.995-2.039-2.039-5.737-2.025-7.698.029m77.744 46.092c0 .22.276.399.612.399.795 0 3.38 2.585 3.38 3.38 0 .337.18.612.399.612.22 0 .4.719.4 1.597s-.18 1.597-.4 1.597c-.219 0-.399.277-.399.617 0 .798-1.778 2.576-2.576 2.576-.34 0-.617.18-.617.4 0 .264-20.759.399-61.477.399-40.719 0-61.478.135-61.478.399 0 .22-.272.399-.606.399-.789 0-5.781 4.992-5.781 5.781 0 .334-.179.606-.399.606-.22 0-.399.32-.399.711 0 .39-.359.969-.799 1.285-.439.317-.798.81-.798 1.097 0 .727-3.438 4.093-4.181 4.093-.335 0-.609.18-.609.399 0 .22-.36.399-.799.399-.439 0-.798.18-.798.4 0 .219-.539.399-1.198.399-.658 0-1.197.18-1.197.399 0 .233-1.331.399-3.194.399s-3.194-.166-3.194-.399c0-.219-.359-.399-.798-.399-.439 0-.798-.18-.798-.399 0-.22-.274-.4-.608-.4-.677 0-4.981-4.137-4.981-4.787 0-.654-6.708-7.189-7.38-7.189-.332 0-.604-.179-.604-.399 0-.219-.36-.399-.799-.399-.439 0-.798-.18-.798-.399 0-.22-.539-.399-1.198-.399-.658 0-1.197-.18-1.197-.4 0-.25-2.529-.399-6.787-.399s-6.786.149-6.786.399c0 .22-.539.4-1.198.4-.658 0-1.197.179-1.197.399 0 .219-.288.399-.639.399-.351 0-1.141.539-1.757 1.198-.615.658-1.329 1.197-1.585 1.197-.604 0-1.608 1.005-1.608 1.608 0 .257-.539.971-1.198 1.586-.658.615-1.197 1.366-1.197 1.669 0 .302-.36.809-.799 1.125-.439.317-.798.856-.798 1.198 0 .342-.359.881-.799 1.197-.439.317-.798.856-.798 1.198 0 .342-.359.881-.798 1.198-.44.316-.799.808-.799 1.093 0 .727-5.043 5.693-5.781 5.693-.333 0-.606.18-.606.399 0 .22-.539.399-1.198.399-.658 0-1.197.18-1.197.4 0 .233-1.331.399-3.194.399s-3.193-.166-3.193-.399c0-.22-.539-.4-1.198-.4-.659 0-1.198-.179-1.198-.399 0-.219-.359-.399-.798-.399-.439 0-.798-.18-.798-.399 0-.22-.275-.399-.61-.399-.792 0-4.181-3.389-4.181-4.181 0-.336-.18-.61-.399-.61-.22 0-.399-.319-.399-.71 0-.391-.36-.969-.799-1.286-.439-.316-.798-.895-.798-1.285 0-.391-.18-.711-.399-.711-.22 0-.4-.359-.4-.798 0-.439-.179-.799-.399-.799-.219 0-.399-.359-.399-.798 0-.439-.18-.798-.399-.798-.22 0-.399-.36-.399-.799 0-.439-.18-.798-.4-.798-.219 0-.399-.274-.399-.608 0-.79-4.19-4.981-4.981-4.981-.334 0-.608-.18-.608-.399 0-.22-.359-.399-.798-.399-.439 0-.798-.18-.798-.4 0-.219-.539-.399-1.198-.399-.659 0-1.198-.179-1.198-.399 0-.261-7.185-.399-20.758-.399s-20.759-.138-20.759-.399c0-.22-.275-.4-.612-.4-.794 0-3.38-2.585-3.38-3.38 0-.336-.179-.612-.399-.612-.219 0-.399-.539-.399-1.197 0-.659.18-1.198.399-1.198.22 0 .399-.275.399-.612 0-1.006 2.655-3.38 3.78-3.38.556 0 1.011-.179 1.011-.399 0-.265 45.908-.399 136.926-.399 91.018 0 136.926.134 136.926.399M73.054 255.888v9.581h-1.198c-.658 0-1.197.18-1.197.399 0 .22-.36.399-.799.399-.439 0-.798.18-.798.4 0 .219-.276.399-.612.399-.747 0-3.38 2.564-3.38 3.292 0 .288-.359.783-.799 1.099-.468.338-.798 1.033-.798 1.685 0 .61-.18 1.109-.399 1.109-.251 0-.399 2.662-.399 7.186s.148 7.186.399 7.186c.219 0 .399.718.399 1.597 0 .878.18 1.596.399 1.596.22 0 .399.719.399 1.597s.18 1.597.4 1.597c.219 0 .399.359.399.798 0 .44.18.799.399.799.22 0 .399.539.399 1.197 0 .659.18 1.198.399 1.198.22 0 .4.539.4 1.198 0 .658.179 1.197.399 1.197.219 0 .399.539.399 1.198 0 .658.18 1.197.399 1.197.22 0 .399.36.399.799 0 .439.18.798.4.798.219 0 .399.36.399.799 0 .439.18.798.399.798.22 0 .399.539.399 1.198 0 .658.18 1.197.399 1.197.22 0 .4.36.4.799 0 .439.179.798.399.798.219 0 .399.32.399.71 0 .391.359.97.798 1.286.44.317.799.895.799 1.286 0 .39.18.71.399.71.22 0 .399.272.399.605 0 1.071 6.649 7.379 7.779 7.379.552 0 1.004.18 1.004.399 0 .22.539.399 1.197.399.659 0 1.198.18 1.198.4 0 .265 39.255.399 116.966.399 77.711 0 116.966-.134 116.966-.399 0-.22.539-.4 1.198-.4.658 0 1.197-.179 1.197-.399 0-.219.32-.399.711-.399.39 0 .969-.359 1.285-.798.317-.439.812-.799 1.1-.799.641 0 3.292-2.592 3.292-3.219 0-.249.538-.956 1.197-1.571s1.198-1.406 1.198-1.757.179-.638.399-.638c.219 0 .399-.36.399-.799 0-.439.18-.798.399-.798.22 0 .4-.359.4-.799 0-.439.179-.798.399-.798.219 0 .399-.359.399-.798 0-.439.18-.799.399-.799.22 0 .399-.359.399-.798 0-.439.18-.799.4-.799.219 0 .399-.359.399-.798 0-.439.179-.798.399-.798.219 0 .399-.539.399-1.198 0-.659.18-1.198.399-1.198.22 0 .4-.359.4-.798 0-.439.179-.798.399-.798.219 0 .399-.539.399-1.198 0-.659.18-1.198.399-1.198.22 0 .399-.539.399-1.197 0-.659.18-1.198.4-1.198.219 0 .399-.539.399-1.197 0-.659.179-1.198.399-1.198.22 0 .399-.539.399-1.198 0-.658.18-1.197.399-1.197.22 0 .4-.719.4-1.597s.179-1.597.399-1.597c.219 0 .399-.898.399-1.996 0-1.098.18-1.996.399-1.996.242 0 .399-1.73.399-4.391s-.157-4.391-.399-4.391c-.219 0-.399-.719-.399-1.597s-.18-1.597-.399-1.597c-.22 0-.399-.359-.399-.798 0-.439-.18-.799-.4-.799-.219 0-.399-.273-.399-.607 0-.791-4.191-4.982-4.981-4.982-.334 0-.608-.179-.608-.399 0-.219-.539-.399-1.197-.399h-1.198v-19.162H73.054v9.581m253.094 1.597v7.186H77.046v-14.372h249.102v7.186m3.193 12.375c0 .22.36.399.799.399.439 0 .798.18.798.4 0 .219.276.399.612.399.795 0 3.38 2.585 3.38 3.38 0 .336.18.612.399.612.22 0 .4.539.4 1.198 0 .658.179 1.197.399 1.197.236 0 .399 1.464.399 3.593s-.163 3.593-.399 3.593c-.22 0-.399.898-.399 1.996 0 1.098-.18 1.996-.4 1.996-.219 0-.399.539-.399 1.197 0 .659-.18 1.198-.399 1.198-.22 0-.399.719-.399 1.597s-.18 1.597-.399 1.597c-.22 0-.4.359-.4.798 0 .439-.179.798-.399.798-.219 0-.399.539-.399 1.198 0 .659-.18 1.198-.399 1.198-.22 0-.399.539-.399 1.197 0 .659-.18 1.198-.4 1.198-.219 0-.399.359-.399.798 0 .439-.18.799-.399.799-.22 0-.399.359-.399.798 0 .439-.18.798-.399.798-.22 0-.4.539-.4 1.198 0 .659-.179 1.198-.399 1.198-.219 0-.399.359-.399.798 0 .439-.18.798-.399.798-.22 0-.399.36-.399.799 0 .439-.18.798-.4.798-.219 0-.399.32-.399.711 0 .39-.359.969-.798 1.285-.439.317-.799.809-.799 1.094 0 .726-5.043 5.693-5.781 5.693-.333 0-.606.179-.606.399 0 .219-.359.399-.798.399-.439 0-.799.18-.799.399 0 .22-.898.399-1.996.399-1.098 0-1.996.18-1.996.4 0 .265-37.525.399-111.776.399-74.252 0-111.777-.134-111.777-.399 0-.22-.898-.4-1.996-.4-1.097 0-1.996-.179-1.996-.399 0-.219-.359-.399-.798-.399-.439 0-.798-.18-.798-.399 0-.22-.274-.399-.608-.399-.74 0-4.981-4.167-4.981-4.894 0-.285-.36-.778-.799-1.094-.439-.317-.798-.895-.798-1.286s-.18-.71-.399-.71c-.22 0-.399-.36-.399-.799 0-.439-.18-.798-.4-.798-.219 0-.399-.359-.399-.799 0-.439-.18-.798-.399-.798-.22 0-.399-.359-.399-.798 0-.439-.18-.799-.4-.799-.219 0-.399-.359-.399-.798 0-.439-.179-.799-.399-.799-.219 0-.399-.539-.399-1.197 0-.659-.18-1.198-.399-1.198-.22 0-.4-.359-.4-.798 0-.439-.179-.799-.399-.799-.219 0-.399-.539-.399-1.197 0-.659-.18-1.198-.399-1.198-.22 0-.399-.359-.399-.798 0-.439-.18-.799-.4-.799-.219 0-.399-.539-.399-1.197 0-.659-.179-1.198-.399-1.198-.219 0-.399-.539-.399-1.197 0-.659-.18-1.198-.399-1.198-.22 0-.4-.719-.4-1.597s-.179-1.597-.399-1.597c-.222 0-.399-1.064-.399-2.395s-.177-2.395-.399-2.395c-.22 0-.399-.898-.399-1.996 0-1.098.179-1.996.399-1.996.219 0 .399-.719.399-1.597s.18-1.597.399-1.597c.22 0 .399-.359.399-.798 0-.439.18-.799.4-.799.219 0 .399-.277.399-.616 0-.799 1.778-2.577 2.577-2.577.339 0 .616-.18.616-.399 0-.22.36-.4.799-.4.439 0 .798-.179.798-.399 0-.265 42.848-.399 127.745-.399s127.744.134 127.744.399" data-color="1"></path>
        <path fill-rule="evenodd" fill="#b45c7c" d="M340.319 208.782c.858.879 1.649 1.597 1.759 1.597.11 0-.502-.718-1.359-1.597-.858-.878-1.649-1.596-1.759-1.596-.11 0 .502.718 1.359 1.596m-.018 32.036l-1.578 1.697 1.696-1.578c1.578-1.468 1.88-1.815 1.578-1.815-.065 0-.829.763-1.696 1.696" data-color="2"></path>
        <path fill-rule="evenodd" fill="#d41c64" d="M66.789 206.268c-1.957.256-7.151 5.597-7.978 8.203-.122.384-.38.699-.574.699-.194 0-.353.539-.353 1.197 0 .659-.179 1.198-.399 1.198-.22 0-.399.708-.399 1.573s-.18 1.684-.399 1.82c-.22.136-.4 1.842-.4 3.792 0 1.951.18 3.657.4 3.793.219.136.399.854.399 1.597 0 .742.179 1.461.399 1.597.22.135.399.775.399 1.42 0 .646.18 1.174.399 1.174.22 0 .4.36.4.799 0 .439.141.798.313.798.172 0 .647.566 1.055 1.257.984 1.664 5.336 5.929 6.052 5.929.31 0 .565.135.567.299.004.359 1.937 1.298 2.671 1.298.286 0 .519.179.519.399 0 .219.524.399 1.165.399.64 0 1.234.211 1.321.47.086.258.353.348.593.2.24-.149 59.047-.315 130.682-.37 103.769-.08 130.278-.202 130.411-.599.091-.275.511-.499.931-.499.421 0 .766-.15.766-.332 0-.183.494-.576 1.097-.874 1.45-.717 6.887-6.232 6.887-6.987 0-.324.179-.59.399-.59.219 0 .399-.359.399-.798 0-.439.18-.799.399-.799.22 0 .399-.348.399-.775 0-.426.18-.885.4-1.021.219-.136.399-.765.399-1.397 0-.633.179-1.262.399-1.397.528-.327.528-9.654 0-9.981-.22-.135-.399-.687-.399-1.226 0-.539-.16-1.292-.356-1.673-.195-.381-.776-1.592-1.29-2.689-.521-1.112-2.23-3.322-3.858-4.99l-2.923-2.994-59.389-.108-59.389-.107-1.368.908c-.807.536-2.631 2.825-4.45 5.582-5.091 7.718-9.11 10.092-17.085 10.092-5.491 0-8.26-1.223-11.829-5.224-9.062-10.158-11.373-11.461-19.163-10.803-5.878.497-8.304 2.401-13.95 10.949-6.372 9.646-10.447 12.444-18.14 12.458-8.406.016-13.659-3.696-18.493-13.064-5.745-11.135-4.546-10.672-27.798-10.727-10.21-.023-19.137.032-19.838.124" data-color="3"></path>
        <path fill-rule="evenodd" fill="#c04977" d="M77.572 205.888c4.79.064 12.515.064 17.166 0 4.65-.064.731-.116-8.71-.116s-13.246.052-8.456.116m170.632 0c15.863.058 41.821.058 57.684 0s2.884-.105-28.842-.105c-31.727 0-44.706.047-28.842.105m-143.211.473c2.567.781 4.622 2.454 6.901 5.619.688.956.688.943 0-.339-1.472-2.738-5.274-5.711-7.187-5.619-.481.023-.388.134.286.339m58.081-.02c-.659.142.814.256 3.273.252 2.459-.003 4.166-.128 3.792-.278-.845-.338-5.458-.321-7.065.026m52.92 1.557c-1.002 1.051-2.233 2.713-2.735 3.693-.502.98-.682 1.449-.4 1.042.283-.407 1.146-1.659 1.918-2.783.773-1.124 2.012-2.452 2.754-2.953.742-.5 1.11-.909.818-.909-.292 0-1.352.86-2.355 1.91m-58.518.977c-1.711 1.39-2.144 1.856-3.44 3.7-.462.659-.066.321.881-.751.947-1.072 2.433-2.464 3.303-3.094.869-.63 1.415-1.145 1.212-1.145-.202 0-1.082.58-1.956 1.29m17.574-.632c.659.345 2.349 1.73 3.757 3.078l2.56 2.451-1.562-1.965c-1.475-1.856-4.612-4.241-5.532-4.206-.231.009.118.298.777.642m6.587 6.054c0 .712 4.583 5.395 6.048 6.179 1.286.689 1.299.689.343 0-1.902-1.368-4.134-3.519-5.259-5.067-.623-.856-1.132-1.357-1.132-1.112m27.475 2.829c-1.245 1.273-2.907 2.62-3.692 2.992-1.553.737-1.857 1.077-.692.772 1.091-.285 5.015-3.468 6.025-4.887 1.22-1.713.961-1.535-1.641 1.123m-59.746 2.337c-2.151 3.276-3.785 5.168-6.059 7.016-.765.622-1.009.942-.542.711 2.042-1.008 10.027-10.823 8.806-10.823-.095 0-1.087 1.393-2.205 3.096m-33.634.026c1.765 3.461 5.822 7.562 8.45 8.542 1.334.498.831-.02-.729-.75-1.991-.932-5.427-4.475-6.94-7.155-1.395-2.473-1.947-2.923-.781-.637m76.363 2.926c1.167.33 6.534.325 8.083-.007.647-.139-1.113-.252-3.912-.252s-4.676.117-4.171.259m-63.331 7.178c1.549.333 6.916.338 8.083.008.505-.143-1.372-.26-4.171-.26-2.799 0-4.559.114-3.912.252" data-color="4"></path>
        <path fill-rule="evenodd" fill="#b46484" d="M72.056 205.466c7.097.254 33.326.305 32.463.063-.509-.143-8.741-.241-18.291-.218-9.551.022-15.929.093-14.172.155m175.717.023c15.846.058 41.894.058 57.884 0 15.991-.058 3.026-.105-28.811-.105-31.836 0-44.919.047-29.073.105m-82.404.386a8.866 8.866 0 002.196 0c.604-.092.11-.167-1.098-.167-1.208 0-1.702.075-1.098.167m5.489.512c1.365.437 2.415.437 1.397 0-.439-.188-1.157-.338-1.596-.331-.642.009-.603.074.199.331m-12.232 1.167c-.689.42-1.394 1.004-1.565 1.296-.185.314.001.266.455-.117.422-.357 1.306-.934 1.965-1.282s1.018-.639.798-.647c-.219-.008-.963.329-1.653.75m16.823.279c.22.217 1.069.885 1.888 1.484.819.6 2.908 2.842 4.642 4.983 2.851 3.521 5.489 6.059 6.297 6.059.167 0-.441-.548-1.352-1.218-.911-.67-2.906-2.781-4.434-4.691-1.527-1.909-3.287-3.943-3.911-4.518-1.072-.989-3.979-2.938-3.13-2.099m38.61 1.848c-1.457 2.151-1.772 2.694-1.564 2.694.091 0 .822-.988 1.624-2.195.802-1.208 1.375-2.196 1.274-2.196-.102 0-.702.764-1.334 1.697m-101.469 2.894c.001.219.37.848.819 1.397.542.663.678.73.404.2-.673-1.302-1.226-2.024-1.223-1.597m96.206 4.423c-.975 1.005-2.275 2.087-2.889 2.405-.614.318-1.117.669-1.117.781 0 .698 3.432-1.891 5.04-3.803 1.494-1.775.996-1.478-1.034.617m-59.28 1.561c-1.025 1.645-2.786 4.025-3.913 5.29-1.473 1.651-1.623 1.905-.534.901 1.926-1.775 7.171-9.181 6.502-9.181-.105 0-1.03 1.346-2.055 2.99m50.883 2.998c-.802.257-.841.322-.199.331.439.007 1.157-.142 1.596-.331 1.018-.437-.032-.437-1.397 0m-5.681.688c.717.089 1.795.087 2.395-.004.6-.091.013-.163-1.305-.161-1.317.002-1.808.077-1.09.165m-75.796 1.108c1.341 1.772 5.23 4.759 5.23 4.017 0-.112-.512-.469-1.138-.792-.626-.324-2.006-1.451-3.068-2.505-1.062-1.055-1.523-1.378-1.024-.72m8.224 5.39c.439.188 1.157.337 1.597.331.641-.01.602-.075-.2-.331-1.365-.438-2.415-.438-1.397 0m10.179 0c-.822.263-.857.325-.199.353.439.018 1.068-.141 1.397-.353.699-.453.214-.453-1.198 0m-5.489.685a8.866 8.866 0 002.196 0c.604-.092.11-.167-1.098-.167-1.207 0-1.701.075-1.098.167m5.821 16.78c35.422.056 93.266.056 128.543 0 35.277-.057 6.295-.103-64.404-.103-70.698 0-99.561.046-64.139.103" data-color="5"></path>
    </g>
</svg>