<svg preserveAspectRatio="xMidYMid meet" data-bbox="10.721 10.425 785.279 749.126" viewBox="10.721 10.425 785.279 749.126"  height="108" width="150" xmlns="http://www.w3.org/2000/svg" data-type="shape" role="img">
    <g>
        <path d="M455.5 11c-20.4 2.5-41.5 12.6-53.3 25.4-4 4.3-12.2 16.2-12.2 17.5 0 .3 2.6 1.7 5.7 3.1 26.6 11.5 39.8 32.5 30.8 49.1-7.3 13.6-8.5 16.6-9.1 22.5-.8 7.6.8 14.7 4.6 20.7 2.2 3.5 4.3 5.2 9.6 7.8l6.9 3.4 25.5.4c14 .1 32.8 0 41.8-.4 15.9-.7 16.2-.8 16.2-3 0-3.7 2.1-8.8 5-12 4.4-4.8 10.8-14.8 14-21.8 14.7-32.4 6.5-67.8-21.7-93.6-15.5-14.3-41-21.9-63.8-19.1zm31.7 21.4c24.1 8.5 38 27.6 40.2 55.1.6 7.6-.4 15.1-1.9 14.8-.6-.2-1.3-5.8-1.6-12.5-1.1-19.5-5.8-30.7-17.9-42.2-6.3-6.1-16.2-11.3-25.7-13.7-3-.7-5.3-1.8-5.3-2.6 0-2 4.7-1.6 12.2 1.1zm-33.9 88.8c3.4 1.8 4.6 4 4.6 8.3 0 4.3-1.2 6.5-4.6 8.3-7.5 4-16.2-3.5-13.3-11.4 2.1-5.6 8.1-8 13.3-5.2z"></path>
        <path d="M396.5 65.8c-3.2 4.8-8.1 18.4-10.1 27.6-2 9.6-2 26.7.2 35.3 2.8 11.8 6.9 19 15.3 27.3 4.2 4.1 9.4 8.5 11.7 9.7l4.1 2.2 2.8-5.9 2.8-5.9-3-3.4c-4.7-5.4-6.6-12.3-6.1-22.6.4-8.2.7-9.1 6.1-19.5 6.3-12 6.9-15.6 4.1-24-2.1-6.1-11.1-15.8-19.3-20.8L399 62l-2.5 3.8z"></path>
        <path d="M422.1 166.4c-2.2 4.1-4.1 7.9-4.1 8.4s3.2 2.3 7 4l7 3.1 4.5-9c3.1-6.1 4.1-9 3.3-9.3-1.9-.4-10-3.2-11.9-4-1.3-.6-2.6.9-5.8 6.8z"></path>
        <path d="M440.9 172.1l-3.8 7.6 5.6 1.2c18 3.6 40.7-1.8 53.3-12.8l4.5-3.9-27.9.1-27.8.2-3.9 7.6z"></path>
        <path d="M492.5 199.5c-18.5 3.4-38 13.9-54.3 29.2l-7.3 6.8L442 262c6.2 14.6 11.4 27.1 11.7 27.7.6 1.4 3.7-.2 29.7-15.5 11-6.4 16.3-8.9 17-8.2 1.4 1.4.9 1.8-14.9 11-7.7 4.5-14.1 8.3-14.3 8.5-.5.5 16 103.9 16.7 104.7.7.8 108.3 20 108.9 19.4 1.4-1.4-3.4-44.9-7.4-66.6-8.5-46.9-22.8-88.3-40-116.1-10.4-16.8-19.8-24.4-34.1-27.4-8.2-1.8-13.5-1.8-22.8 0z"></path>
        <path d="M409.1 257.9c-19.3 14.1-20.7 14.9-26 15.4-3.1.4-23.9 1.6-46.4 2.9-22.4 1.2-41.2 2.5-41.8 2.9-.8.4-.6 1.5.6 3.2 2.1 3.3 3.1 12.6 1.6 16.7-.8 2.5-.8 3 .2 2.2.8-.6 17.9.6 50.3 3.6l49.1 4.5 24.9-12.7c13.7-7.1 25-12.9 25.2-13.1.4-.3-15.7-38.8-16.6-39.7-.4-.4-9.9 5.9-21.1 14.1z"></path>
        <path d="M270.8 275c-8.3 2.5-13.3 10-12.6 19.1.5 7 4.1 12.2 10.2 15 7.9 3.6 15.7 2 21.3-4.4 4.6-5.3 5.8-10.5 3.9-17-2.9-10.1-12.9-15.7-22.8-12.7z"></path>
        <path d="M248.1 290.6c-9.8 4.9-21.2 18.7-29.9 35.9-8.9 17.9-19.3 48.9-27.7 82.5-9.2 37.4-25.1 119.1-26.1 134-.6 9.2.6 26 2.2 31.1.2.9 3.5 3.7 7.3 6.2 19.7 13.1 33.2 31.5 40.6 55.1l3.1 10.1 7.7 3.7c4.2 2.1 11.6 4.9 16.4 6.3 18.2 5.3 21.2 5.5 115.8 6.2l88 .6 1.3-12.9c3.4-35.7 17.1-64.5 41.9-88.5 24.1-23.2 52.8-34.9 85.8-34.9 20.6 0 35.5 3.5 54 12.6 24.9 12.3 44.3 31.5 58.1 57.6 6 11.5 6.5 10.9 3.3-3.9-6.9-32-24.9-63.8-48.7-86.6l-6.1-5.7H533c-96.8 0-102.1.1-101.6 1.7.9 2.9 5.3 30 6.7 40.8 1.6 13.1 1.7 40.4.1 48-1.7 8.6-5.7 16.1-10 19l-3.7 2.5h-68.1c-64.5 0-68.5-.1-75.8-2-33.8-8.6-49.3-39.4-53.5-106.5-5.2-82.5.6-134.1 19.3-173.1 3-6.2 7.2-13.8 9.4-17.1l4-5.9-2.6-4.3c-1.9-3.2-2.6-5.9-2.7-9.8 0-2.9-.2-5.3-.6-5.3-.3 0-2.9 1.2-5.8 2.6z"></path>
        <path d="M469 398.6c-8.5 2.4-24.3 6.9-35 9.8-10.7 3-27.2 7.6-36.6 10.2l-17 4.7-42.9 82.8c-23.5 45.5-42.8 83.1-42.8 83.6.1.4 8.8 3.5 19.5 6.9 17.1 5.4 19.4 5.9 20.4 4.5.6-.9 19.4-31.3 41.7-67.7l40.7-66v-5.6c0-9.4-5.1-8.7 64.5-9l61-.3 11.8-3.2c25.3-6.8 39.6-17.8 42.2-32.3l.6-3.5-55.8-9.8c-30.7-5.4-56-9.8-56.3-9.7-.3.1-7.5 2.2-16 4.6z"></path>
        <path d="M421.2 457.2c-1.7 1.7-1.7 36.9 0 38.6 1.7 1.7 225.9 1.7 227.6 0 .8-.8 1.2-6.6 1.2-19.3 0-12.7-.4-18.5-1.2-19.3-1.7-1.7-225.9-1.7-227.6 0z"></path>
        <path d="M102 511c-34.5 4.8-65.8 21.1-87.1 45.6-4.6 5.2-4.9 5.9-3.3 6.5 1.1.4 16.7 2.6 34.7 4.9l32.8 4.1 7-2.6c21-7.5 46.5-7.2 68 .9 7.2 2.7 8.9 3 8.5 1.7-2.5-8.1-2.3-34.3.4-48 1.2-6.3 1.1-6.3-6.5-8.6-15.2-4.5-39.6-6.5-54.5-4.5z"></path>
        <path d="M563 529.6c-17 2.2-29.1 5.8-43.3 13.2-25.1 12.8-44.3 33.2-57.2 60.5-7.1 15.1-12.5 36.9-12.5 50.9v5.8h23.7l.7-7.1c1.5-14.9 9.1-34.8 18-47.4 6.1-8.4 20.9-22.2 29.2-27.1 8.4-4.9 19.5-9.5 28.9-12 10.5-2.8 37-2.6 47.9.4 9.9 2.7 25 9.8 33.1 15.7 22.6 16.1 38.4 43.1 41.1 70.4l.7 7.1h26l-.6-8.8c-3.5-52.8-38.8-99.9-87.2-116-13.3-4.5-36.4-7.1-48.5-5.6z"></path>
        <path d="M103.8 568.5c-48.8 8.2-83 50.5-80.5 99.8.7 14.2 3.3 24.5 9.7 37.4 12.9 26.1 34.3 43.5 63 51 13.6 3.6 32.4 3.6 46 0 28.7-7.5 50.1-24.9 63-51 6.7-13.5 9.1-23.1 9.7-38.8.6-14.3-.8-23.6-5.8-37.3-15.2-42-60.9-68.5-105.1-61.1zm34.7 30.5c11 3.4 19.1 8.4 28 17.4 13.3 13.4 19.5 28.4 19.5 47.1 0 18.7-6.2 33.7-19.5 47-13.6 13.7-28.3 19.8-47.5 19.8-12.7 0-20.3-1.8-31.5-7.6-10.5-5.4-22.4-17.2-27.8-27.4-13.3-25.3-9.3-56.4 9.9-77.2 10.1-10.9 23.8-18.6 37.7-21.1 7.9-1.4 23.2-.4 31.2 2z"></path>
        <path d="M110.8 600.1c-20.7 2.7-39.4 16.1-48.7 35-9.4 19-9.3 37.8 0 56.9 7.9 16.2 24.4 29.3 41.9 33.4 8.4 2 22.6 2 30.4 0C152 720.9 168 708 175.9 692c9.6-19.8 9.1-41.3-1.5-60.5-4.6-8.3-17.7-20.6-26.4-24.8-12.2-6-24.7-8.2-37.2-6.6zm21.3 35.1c10.9 5.1 17.1 14.4 17.7 26.5.5 9.7-1.6 15.8-7.9 22.7-6.5 7.2-12.9 10-22.9 10-6.2.1-8.5-.4-13.2-2.7-7-3.4-14-11-16.2-17.4-2-6-2-15.6 0-21.6 2.9-8.5 12.7-17.4 21.9-19.8 5.3-1.4 14.9-.3 20.6 2.3z"></path>
        <path d="M112.1 636.6c-9.2 2.5-15.7 8.3-19.1 17.2-3.9 10.2-1.5 21.3 6.2 28.9 6 5.8 11.8 8.3 19.8 8.3 18.9 0 32.6-18.7 26.5-36.1-3.5-9.8-10-15.7-20.2-18.4-6.7-1.8-6.3-1.8-13.2.1z"></path>
        <path d="M563 567.6c-14.3 1.9-30.6 8-42.4 15.8-18.6 12.4-32.1 30.5-38.9 52.1-8.8 28.2-3.7 59.4 13.8 84 4.9 6.9 16.9 18.7 23.5 23.2 18.7 12.7 43.2 18.8 64.6 16.3 41.2-4.9 73.5-33.5 83.7-74 3.2-12.8 2.9-32-.7-45.5-10.9-41.4-47.1-70.4-89.6-71.9-5.8-.2-12.1-.2-14 0zm28.1 30.9c10.8 2.8 21.4 9 29.9 17.5 26.3 26.3 26.3 68.6-.1 94.9-7.9 7.9-16.6 13.2-27.4 16.7-10.1 3.3-26.3 3.8-36.5 1.1-23.8-6.3-42.5-25-48.7-48.7-2.2-8.6-2.2-24.4 0-33 2.3-8.6 7.6-19.2 13.2-26.2 8.4-10.5 24-20.2 36.5-22.7 3-.6 6.4-1.3 7.5-1.5 3.8-.9 19.1.3 25.6 1.9z"></path>
        <path d="M565.5 600c-20.5 2.8-39.6 16.2-48.3 34-5.4 11-7.2 18.3-7.2 29.5 0 35.5 28 63.5 63.5 63.5 11.1 0 18.5-1.8 29.3-7.1 20.8-10.1 34.2-32.2 34.4-56.4.2-38.2-34-68.5-71.7-63.5zm21.9 35.4c6.3 3.1 11.9 8.9 14.9 15.5 3.4 7.2 3.1 18.8-.6 26.3-3.2 6.4-8.9 12-15.7 15.1-3.4 1.6-6.5 2.1-12.5 2.1-7.2 0-8.6-.3-14.3-3.4-11.1-5.9-16.5-14.8-16.6-27-.1-8.1 1.1-12 5.6-18.7 8.4-12.4 25.3-16.7 39.2-9.9z"></path>
        <path d="M566.8 636.4c-6.3 1.7-12.2 5.7-15.8 10.8-8.3 11.4-6.1 28.8 4.7 37.7 18 14.8 45.7 1.8 45.6-21.4 0-18-17.6-31.8-34.5-27.1z"></path>
    </g>
</svg>