<svg preserveAspectRatio="xMidYMid meet" data-bbox="0 0 116.343 103.71" viewBox="0 0 116.343 103.71"  height="100" width="150" xmlns="http://www.w3.org/2000/svg" data-type="color" role="img">
    <g>
        <path fill="#333333" d="M79.85 85.29H53.17a1 1 0 1 1 0-2h26.59c.62-.13 4.62-1.12 4.32-5a4.52 4.52 0 0 0-4.66-4.49H61.68a1 1 0 0 1-.75-.34c-10.15-11.56-34.31-8.26-34.6-8.23a1.01 1.01 0 1 1-.28-2 69 69 0 0 1 14-.27c9.9.81 17.51 3.84 22.08 8.77h17.28a6.49 6.49 0 0 1 6.66 6.33c.37 4.79-3.79 6.79-6 7.18z" data-color="1"></path>
        <path fill="#333333" d="M65.94 103.71c-3.66 0-12.68-2.76-13.06-2.88l-26.93-7.79a1 1 0 0 1 .56-1.92l26.94 7.79c.11 0 9.13 2.8 12.49 2.8 5.6 0 34.31-14.75 44.9-20.44.26-.12 4.82-2.22 3.09-6.55-1-2.59-5.77-.87-5.82-.85l-19.36 7.42a1.002 1.002 0 1 1-.72-1.87l19.38-7.46c2.45-.92 7-1.54 8.37 2 2 4.91-1.8 8.09-4.07 9.09-1.5.83-38.52 20.66-45.77 20.66z" data-color="1"></path>
        <path fill="#d70f64" d="M94.82 29.07c0 16.055-12.697 29.07-28.36 29.07S38.1 45.125 38.1 29.07 50.797 0 66.46 0s28.36 13.015 28.36 29.07z" data-color="2"></path>
        <path fill="#ffffff" d="M75.98 32.75a6.91 6.91 0 0 1-1.11 3.85 7.32 7.32 0 0 1-3.23 2.69 12.12 12.12 0 0 1-5 1 11.31 11.31 0 0 1-5.76-1.32 7.58 7.58 0 0 1-2.62-2.54 5.74 5.74 0 0 1-1-3.08 2 2 0 0 1 .61-1.49 2.06 2.06 0 0 1 1.46-.67 1.83 1.83 0 0 1 1.28.48 3.86 3.86 0 0 1 .89 1.44 9.91 9.91 0 0 0 1 1.88 3.91 3.91 0 0 0 1.48 1.3 5.38 5.38 0 0 0 2.49.49 5.65 5.65 0 0 0 3.46-1 3 3 0 0 0 1.33-2.49 2.6 2.6 0 0 0-.72-1.91 4.62 4.62 0 0 0-1.85-1.09 31.39 31.39 0 0 0-3-.82 22.14 22.14 0 0 1-4.26-1.4 6.86 6.86 0 0 1-2.72-2.17 5.66 5.66 0 0 1-1-3.42 5.84 5.84 0 0 1 1.07-3.46 6.69 6.69 0 0 1 3.07-2.33 12.67 12.67 0 0 1 4.74-.82 11.71 11.71 0 0 1 3.76.54 7.77 7.77 0 0 1 2.63 1.44 5.9 5.9 0 0 1 1.53 1.87 4.27 4.27 0 0 1 .49 1.92 2.25 2.25 0 0 1-.67 1.49 1.93 1.93 0 0 1-1.5.68 1.7 1.7 0 0 1-1.25-.41 5.51 5.51 0 0 1-.93-1.34 6.15 6.15 0 0 0-1.54-2.09 4.54 4.54 0 0 0-2.9-.75 5 5 0 0 0-3 .82 2.35 2.35 0 0 0-1.14 2 2 2 0 0 0 .39 1.23 3.22 3.22 0 0 0 1.06.88 7 7 0 0 0 1.37.58c.46.14 1.23.35 2.29.61a37.27 37.27 0 0 1 3.62 1 11.2 11.2 0 0 1 2.75 1.36 5.6 5.6 0 0 1 1.77 2 6.45 6.45 0 0 1 .66 3.05z" data-color="3"></path>
        <path fill="#ffffff" d="M66.48 43.95a2 2 0 0 1-2-2v-2.58a2 2 0 0 1 4 0v2.58a2 2 0 0 1-2 2z" data-color="3"></path>
        <path fill="#ffffff" d="M66.48 18.41a2 2 0 0 1-2-2v-2.6a2 2 0 1 1 4 0v2.6a2 2 0 0 1-2 2z" data-color="3"></path>
        <path fill="#d70f64" d="M0 60.43h22a4.25 4.25 0 0 1 4.23 4.26v26.23a4.25 4.25 0 0 1-4.25 4.25h-8.51" data-color="2"></path>
    </g>
</svg>