<svg id="Layer_1" data-name="Layer 1" xmlns="http://www.w3.org/2000/svg" viewBox="0 0 80 80"><defs><style>.cls-1{fill:#d52267;}.cls-2{fill:#989999;}</style></defs><title>ic_Skyline_female_m_V01_AA-01</title><path class="cls-1" d="M44.94,53.87a5.83,5.83,0,1,0,5.83,5.83A5.86,5.86,0,0,0,44.94,53.87Zm0,12.86a7,7,0,1,1,7-7A7,7,0,0,1,44.94,66.73Z"/><path class="cls-1" d="M63,53.87a5.83,5.83,0,1,0,5.83,5.83A5.86,5.86,0,0,0,63,53.87Zm0,12.86a7,7,0,1,1,7-7A7.09,7.09,0,0,1,63,66.73Z"/><path class="cls-1" d="M45.84,59.09H53l-4.11-8.22ZM54,60.28h-9a.59.59,0,0,1-.49-.25.63.63,0,0,1-.08-.53l3.78-10.07-1.19-2.38a.62.62,0,0,1,1.11-.53l6.45,12.9a.56.56,0,0,1-.53.86Z"/><path class="cls-1" d="M54,60.28a.59.59,0,0,1-.49-.25.63.63,0,0,1-.08-.53l3.86-10.31a.61.61,0,1,1,1.15.41l-3.9,10.31A.53.53,0,0,1,54,60.28Z"/><path class="cls-1" d="M57.84,50h-9a.62.62,0,0,1,0-1.23h9a.62.62,0,0,1,0,1.23Z"/><path class="cls-1" d="M51.3,47.42H45.06a.62.62,0,0,1,0-1.23H51.3a.62.62,0,1,1,0,1.23Z"/><path class="cls-1" d="M63,60.28a.59.59,0,0,1-.53-.33L55.58,46.23h6.74a2.55,2.55,0,0,1,0,5.1H61a.62.62,0,0,1,0-1.23h1.27a1.31,1.31,0,1,0,0-2.63H57.51l6,12a.58.58,0,0,1,0,.45.47.47,0,0,1-.29.33A.34.34,0,0,1,63,60.28Z"/><path class="cls-2" d="M56.65,42.53H53.4a.46.46,0,0,1-.45-.45V37.56H51.3a.45.45,0,0,1,0-.9h2.14a.46.46,0,0,1,.45.45v4.52h2.79a.46.46,0,0,1,.45.45A.53.53,0,0,1,56.65,42.53Z"/><path class="cls-2" d="M17.16,61a.46.46,0,0,1-.45-.45V34.52a.46.46,0,0,1,.45-.45h.49V26.26a.46.46,0,0,1,.45-.45h4.56v-1.6a.46.46,0,0,1,.45-.45h4.64a.46.46,0,0,1,.45.45v4.52h.45a.46.46,0,0,1,.45.45V46.11a.45.45,0,0,1-.9,0V29.67h-.45a.46.46,0,0,1-.45-.45V24.7H23.53v1.6a.46.46,0,0,1-.45.45H18.56v7.81a.46.46,0,0,1-.45.45h-.49v25.6A.45.45,0,0,1,17.16,61Z"/><path class="cls-2" d="M38.2,49.48H35.32a.46.46,0,0,1-.45-.45V46.52H28.7a.45.45,0,1,1,0-.9h6.62a.46.46,0,0,1,.45.45v2.51h2v-6a.46.46,0,0,1,.45-.45H43.7V21.45a.46.46,0,0,1,.45-.45h5.51a.46.46,0,0,1,.45.45V31.73h1.27a.46.46,0,0,1,.45.45v4.93a.45.45,0,1,1-.9,0V32.59H49.58a.46.46,0,0,1-.45-.45V21.9h-4.6V42.61a.46.46,0,0,1-.45.45H38.61v6A.41.41,0,0,1,38.2,49.48Z"/><path class="cls-2" d="M44.07,35.55H42.18a.46.46,0,0,1-.45-.45v-9l-.41-.41a.47.47,0,0,1-.12-.33V21.7l-2.38-7.64V14l0-.62,0,.62v.08L36.35,21.7v3.62a.47.47,0,0,1-.12.33l-.41.41v4.27a.46.46,0,0,1-.45.45H32.53v3.66a.46.46,0,0,1-.45.45H28.75a.45.45,0,1,1,0-.9h2.92V30.33a.46.46,0,0,1,.45-.45h2.79v-4a.47.47,0,0,1,.12-.33l.41-.41V21.45l2.42-7.68.33-3.66a.42.42,0,0,1,.45-.41h.29a.45.45,0,0,1,.45.41l.33,3.66,2.42,7.68v3.7l.41.41a.47.47,0,0,1,.12.33v8.79h1.44a.45.45,0,0,1,0,.9h0Z"/></svg>