<svg id="Layer_5" fill="#969696" enable-background="new 0 0 64 64" height="512" viewBox="0 0 64 64" width="512" xmlns="http://www.w3.org/2000/svg"><path d="m59.894 47.284c.705-1.013 1.106-2.112 1.106-3.284 0-4.755-6.434-8.106-12.791-9.379.302-1.124.925-2.148 1.823-2.925l11.438-9.913c.972-.843 1.53-2.063 1.53-3.35 0-2.445-1.988-4.433-4.433-4.433-1.286 0-2.507.558-3.35 1.529l-9.913 11.438c-1.118 1.292-2.741 2.033-4.45 2.033-2.108 0-4.089.82-5.579 2.311l-2.347 2.347c-.24-2.052-1.052-3.827-2.406-5.18-.395-.395-.837-.727-1.299-1.029l1.765-11.294-.01-.002c.004-.052.022-.1.022-.153 0-2.673-4.531-3.904-7.822-4.447l.407-3.662c.057-.508.484-.891.995-.891h13.42v-6h-13.42c-3.572 0-6.563 2.678-6.957 6.228l-.422 3.798c-.399-.01-.793-.026-1.201-.026-7.225 0-15 1.564-15 5 0 .053.018.101.022.153l-.01.002 1.996 12.772c-.001.025-.008.047-.008.073 0 .37.072.695.176 1l2.015 12.896c-.224 1.381-.235 2.687-.04 3.892-2.745 1.198-4.151 2.612-4.151 4.212v4c0 5.252 15.595 8 31 8s31-2.748 31-8v-4c0-1.385-1.051-2.63-3.106-3.716zm-.894-3.284c0 4.037-8.42 8-17 8-5.783 0-11.672-1.764-14.82-4.363.462-.477.898-.97 1.311-1.474 2.321 1.796 7.334 3.837 13.509 3.837 8.135 0 15-3.686 15-6 0-1.931-4.333-4.38-9.383-5.431.202-.628.321-1.285.36-1.957 6.362 1.294 11.023 4.369 11.023 7.388zm-28.17-1.279.931.931 7.239-7.238 1.586 1.586-7.238 7.238 1.414 1.414 7.238-7.238 1.586 1.586-6.532 6.532c-3.575-.692-6.138-2.01-7.36-2.963.415-.605.794-1.222 1.136-1.848zm15.901-2.288c4.68.864 7.592 2.76 8.199 3.566-.793 1.031-5.598 4.001-12.93 4.001-.859 0-1.683-.042-2.471-.115l6.16-6.161c.397-.397.743-.831 1.042-1.291zm.085-12.156 9.913-11.438c.463-.534 1.133-.84 1.838-.84 1.342.001 2.433 1.092 2.433 2.434 0 .706-.306 1.376-.839 1.838l-11.438 9.913c-1.73 1.5-2.723 3.673-2.723 5.963 0 1.225-.376 2.391-1.066 3.373l-7.454-7.454c.982-.69 2.148-1.066 3.374-1.066 2.29 0 4.463-.992 5.962-2.723zm-10.816 5.137 1.586 1.586-5.869 5.869c.446-1.067.795-2.146 1.01-3.221.077-.384.127-.759.172-1.132zm-5.234 3.841c-.643 3.213-2.511 6.497-5.262 9.248s-6.036 4.62-9.249 5.263c-3.067.613-5.681.025-7.363-1.657s-2.271-4.297-1.657-7.363c.643-3.213 2.511-6.497 5.262-9.248s6.036-4.62 9.249-5.263c.792-.158 1.553-.236 2.276-.236 2.078 0 3.839.646 5.087 1.894 1.682 1.68 2.27 4.295 1.657 7.362zm-18.52-6.262c-.083.002-.162.007-.246.007-5.018 0-6.516-.85-6.889-1.567l-.094-.599c.14-.753 1.325-1.834 6.983-1.834.817 0 3.089.055 5.462.569-1.819.843-3.589 1.998-5.216 3.424zm-1.997 1.98c-1.562 1.727-2.821 3.618-3.714 5.57l-.998-6.385c1.443.57 3.245.758 4.712.815zm11.104-6.7c-.226.045-.452.111-.678.167-3.307-1.294-7.146-1.44-8.675-1.44-1.685 0-5.28.001-7.381 1.285l-1.153-7.382c2.867 1.423 7.811 2.097 12.534 2.097s9.667-.674 12.534-2.096l-1.192 7.629c-1.747-.596-3.779-.702-5.989-.26zm7.64-10.305-.019.124c-.191.658-2.408 1.815-6.573 2.454l.556-5.005c4.476.755 5.97 1.989 6.036 2.427zm-9.382-8.52c.281-2.536 2.417-4.448 4.969-4.448h11.42v2h-11.42c-1.53 0-2.812 1.147-2.982 2.669l-1.237 11.133c-.637.061-1.32.104-2.027.138zm-3.611 5.552c.333 0 .653.014.98.021l-.664 5.974c-.107.001-.207.005-.316.005-8.304 0-12.701-1.968-12.974-2.908l-.019-.119c.082-.911 4.496-2.973 12.993-2.973zm16 48c-17.967 0-29-3.494-29-6v-.97c4.684 3.273 16.898 4.97 29 4.97s24.316-1.697 29-4.97v.97c0 2.506-11.033 6-29 6zm0-4c-17.967 0-29-3.494-29-6 0-.529.724-1.369 2.668-2.261.415 1.052 1.018 1.992 1.81 2.784 1.633 1.634 3.882 2.481 6.491 2.481.857-.001 1.753-.092 2.679-.277 3.136-.627 6.311-2.278 9.08-4.697 3.474 2.957 9.969 4.97 16.272 4.97 6.247 0 12.987-1.986 16.518-5.176 2.288 1.085 2.482 1.93 2.482 2.176 0 2.506-11.033 6-29 6z"/><path d="m20.373 31.176c-2.287.457-4.601 1.764-6.517 3.68s-3.223 4.23-3.68 6.517c-.487 2.434.032 4.562 1.461 5.99 1.08 1.08 2.557 1.641 4.264 1.641.553 0 1.13-.06 1.726-.179 2.287-.457 4.601-1.764 6.517-3.68s3.223-4.23 3.68-6.517c.487-2.434-.032-4.562-1.461-5.99-1.43-1.431-3.557-1.949-5.99-1.462zm5.49 7.059c-.381 1.903-1.494 3.855-3.133 5.495s-3.591 2.752-5.495 3.133c-1.758.354-3.243.026-4.184-.915s-1.266-2.427-.915-4.184c.381-1.903 1.494-3.855 3.133-5.495s3.591-2.752 5.495-3.133c.462-.093.905-.138 1.324-.138 1.176 0 2.167.358 2.86 1.053.942.942 1.267 2.428.915 4.184z"/></svg>