<svg id="Layer_1" data-name="Layer 1" xmlns="http://www.w3.org/2000/svg" viewBox="0 0 80 80"><title>Icon_foodora_page_Proof_Career_Vektor_VO1_MB</title><path d="M50.74,58.38H27.29a.5.5,0,0,1-.5-.46L24.94,32.45A7.26,7.26,0,0,1,26,18a7.14,7.14,0,0,1,2.61.49A11.17,11.17,0,0,1,39,11.94,11.2,11.2,0,0,1,49.45,18.5,7.14,7.14,0,0,1,52.06,18a7.26,7.26,0,0,1,1,14.44L51.24,57.92A.5.5,0,0,1,50.74,58.38Zm-23-1H50.28l1.81-25h0a.5.5,0,0,1,.27-.9,6.26,6.26,0,1,0-3-11.9.5.5,0,0,1-.68-.28A10.11,10.11,0,0,0,39,12.94a10.13,10.13,0,0,0-9.72,6.39.5.5,0,0,1-.69.28A6.2,6.2,0,0,0,26,19a6.26,6.26,0,0,0-.29,12.51.5.5,0,0,1,.27.9h0Z" fill="#989898"/><polygon points="51.35 49.76 26.68 49.76 27.31 57.88 50.76 57.88 51.35 49.76" fill="#d71a66"/><path d="M50.76,58.38H27.31a.5.5,0,0,1-.5-.46l-.64-8.12a.5.5,0,0,1,.5-.54H51.35a.5.5,0,0,1,.5.54l-.59,8.13A.5.5,0,0,1,50.76,58.38Zm-23-1H50.3l.52-7.12H27.22Z" fill="#989898"/><path d="M36.06,50.25a.5.5,0,0,1-.5-.5V41.82a.5.5,0,0,1,1,0v7.94A.5.5,0,0,1,36.06,50.25Z" fill="#989898"/><path d="M42.34,50.25a.5.5,0,0,1-.5-.5V41.82a.5.5,0,0,1,1,0v7.94A.5.5,0,0,1,42.34,50.25Z" fill="#989898"/><path d="M39.09,50.25a.5.5,0,0,1-.5-.5V39.35a.5.5,0,0,1,1,0v10.4A.5.5,0,0,1,39.09,50.25Z" fill="#989898"/></svg>