<svg id="Layer_1" data-name="Layer 1" xmlns="http://www.w3.org/2000/svg" viewBox="0 0 80 80"><title>Icon_foodora_page_Proof_Career_Vektor_VO1_MB</title><path d="M31.42,65.82h-.11A22.82,22.82,0,1,1,50,25.29a.5.5,0,0,1,.13.66,2.46,2.46,0,0,1-3.12,1.22l-3.89-1a5.55,5.55,0,0,1-1.6,2.5l-1.46,1.37a.5.5,0,0,1-.82-.52c.36-1.08.63-2.82.12-3.33a3.29,3.29,0,0,0-2.36-1,2,2,0,0,0-1.51.9A7,7,0,0,1,33.26,28c-1,.58-1.51.92-1.51,1.69a3.61,3.61,0,0,1-1,2.45,2,2,0,0,0-.63,1.29c0,1.15,1.38,2,1.39,2a.5.5,0,0,1,.25.48c0,.36-.25,2.19-1.19,2.76a1.23,1.23,0,0,1-1.15.06,2.31,2.31,0,0,0-2,0,.71.71,0,0,0-.32.65c0,1.4-1.34,2.93-1.71,3.33a3.15,3.15,0,0,0-.25,1.71c.79.26,1.64.63,1.72,1.33,0,.44-.23.85-.82,1.2a11.28,11.28,0,0,0-2.1,1.5c-.81.81-.57,1.22-.47,1.38A5.52,5.52,0,0,1,24,51.4c.27,1.16.46,1.77,1.54,1.92l1.22.14c1.54.16,2.75.29,3.76,1.5a5.06,5.06,0,0,1,.91,2.79,3.38,3.38,0,0,0,.44,1.67c.65.74.05,1.43-.26,1.8-.1.11-.33.38-.32.46s0,.14.45.37a1.68,1.68,0,0,1,.86,1.1,3.23,3.23,0,0,1-.79,2.46A.5.5,0,0,1,31.42,65.82Zm4.93-44.1a21.82,21.82,0,0,0-5.16,43,2.09,2.09,0,0,0,.45-1.39.67.67,0,0,0-.38-.45h0a1.64,1.64,0,0,1-.94-1.07,1.58,1.58,0,0,1,.54-1.28,1.54,1.54,0,0,0,.31-.44,4,4,0,0,1-.72-2.26,4.25,4.25,0,0,0-.68-2.27c-.75-.89-1.63-1-3.1-1.14-.39,0-.8-.08-1.25-.15-1.82-.26-2.13-1.6-2.38-2.69a4.71,4.71,0,0,0-.45-1.36c-1.1-1.84,1.61-3.47,2.92-4.25a1,1,0,0,0,.34-.28,6.3,6.3,0,0,0-1.07-.46,1,1,0,0,1-.57-.52,4.16,4.16,0,0,1,.26-2.57.5.5,0,0,1,.11-.17,5.24,5.24,0,0,0,1.5-2.71,1.71,1.71,0,0,1,.77-1.48,3.25,3.25,0,0,1,2.95,0c.15.06.21,0,.24,0,.33-.19.57-1,.67-1.7a3.48,3.48,0,0,1-1.61-2.65A2.92,2.92,0,0,1,30,31.52a2.63,2.63,0,0,0,.79-1.82c0-1.38,1-2,2-2.56a6.07,6.07,0,0,0,2-1.58A3,3,0,0,1,37,24.26a4.24,4.24,0,0,1,3.14,1.25,3.3,3.3,0,0,1,.5,2.71l.27-.25a4.08,4.08,0,0,0,1.4-2.42.5.5,0,0,1,.62-.45l4.39,1.1c.94.23,1.38.07,1.76-.39A21.63,21.63,0,0,0,36.36,21.73Z" fill="#989898"/><path d="M37.55,66.34a.5.5,0,0,1-.41-.78,20.37,20.37,0,0,1,2.72-3.41,6.38,6.38,0,0,1,1.48-1c.35-.18.35-.18.67-2.22a8.78,8.78,0,0,1,2.06-4.64l.29-.36-.22,0a6.85,6.85,0,0,1-3.27-1c-.4-.25-.66-.4-.82-.49s-.47-.27-.49-.57a.64.64,0,0,1,.25-.48c.14-.11.15-.6,0-1.26-.07-.34-.13-.67-.19-1-.27-1.49-.47-2.56-1.17-3a2.18,2.18,0,0,0-1.17-.27A12.89,12.89,0,0,1,32.2,45c-1.71-.57-2.9-.76-3.53-.55a.9.9,0,0,1-.83-.11c-.6-.43-.65-1.62-.65-2a.5.5,0,0,1,.27-.44,16.65,16.65,0,0,1,2.85-1.18,6.31,6.31,0,0,0,.89-.35c1-.44,2.51-1.11,3.17.35.51,1.11,1.09,1.15,2.08,1.12a2.18,2.18,0,0,1,1.41.66c0-.06,0-.14,0-.23A1.36,1.36,0,0,0,37.45,41a.65.65,0,0,1-.23-.72c.16-.37.4-.37,1.45-.37a5.55,5.55,0,0,1,3.7,1.73c.12.11.21.2.28.24a.5.5,0,0,1-.16,1h-1.9c-.1,0-.29,0-.34.1-.32.51.72,2.57,1.27,3.68.24.48.46.92.62,1.29a4.42,4.42,0,0,1,.33,2.13c0,.71,0,.74.66.83a6.39,6.39,0,0,1,.73.14,4.83,4.83,0,0,1,.9-.63,9.7,9.7,0,0,1,1.6-.71,3.07,3.07,0,0,0,.85-.39,2.79,2.79,0,0,0-.67-.83A5.66,5.66,0,0,0,44,47.1c-.38-.11-.77-.22-.75-.66s.24-.5,1.69-.76a5.61,5.61,0,0,1,5.42,1.87l.23.22a3.43,3.43,0,0,0,.79.49,2.68,2.68,0,0,1,1.83,2.58,2,2,0,0,0,1.07,1.72c.43.33.88.67.89,1.24a2.68,2.68,0,0,0,.73.84.5.5,0,0,1,.09.63A22.79,22.79,0,0,1,37.58,66.34Zm3.23-14.66.62.37a5.89,5.89,0,0,0,2.82.83c.55,0,1,.08,1.17.42a.74.74,0,0,1,.06.68,3.22,3.22,0,0,1-.6.92A7.74,7.74,0,0,0,43,59c-.38,2.38-.41,2.57-1.21,3a5.45,5.45,0,0,0-1.27.88,15.43,15.43,0,0,0-2,2.37A21.8,21.8,0,0,0,54.88,55.09c-.67-.67-.75-1-.75-1.27s-.3-.32-.5-.47a3,3,0,0,1-1.47-2.51c0-1-.54-1.31-1.29-1.69a4.19,4.19,0,0,1-1-.66l-.24-.24a4.6,4.6,0,0,0-4.08-1.66,5.67,5.67,0,0,1,1.73,1.18c.76.78,1,1.29.92,1.78s-.75.82-1.47,1.08a8.66,8.66,0,0,0-1.44.63,2.7,2.7,0,0,0-.76.54.38.38,0,0,1-.26.28.54.54,0,0,1-.47,0,2.71,2.71,0,0,0-.78-.18c-1.59-.23-1.55-1.14-1.52-1.87a3.47,3.47,0,0,0-.24-1.68c-.16-.35-.37-.78-.6-1.24-1.08-2.14-1.8-3.73-1.23-4.65a1.29,1.29,0,0,1,1.19-.57h.51a4,4,0,0,0-2.43-1h0a2.36,2.36,0,0,1,.25,1.53c-.07.52-.19,1.09-.64,1.25s-.76-.15-1-.39a1.4,1.4,0,0,0-.73-.43,2.7,2.7,0,0,1-3-1.7c-.2-.45-.58-.42-1.86.15a7,7,0,0,1-1.06.4,14.16,14.16,0,0,0-2.35.95,1.82,1.82,0,0,0,.22.86c.79-.31,2.11-.14,4.09.52a11.84,11.84,0,0,0,4.78.8,3.13,3.13,0,0,1,1.7.42c1.08.67,1.32,2,1.62,3.67.06.31.12.64.18,1A3.07,3.07,0,0,1,40.78,51.69Zm14.35,2.13h0Z" fill="#989898"/><path d="M42.58,42.85h-.17a.5.5,0,0,1,.05-1h0a.51.51,0,1,1,.13,1Zm-.1-.62v0Z" fill="#989898"/><path d="M36.36,66.38a23,23,0,0,1-5-.57A.5.5,0,0,1,31,65a2.46,2.46,0,0,0,.63-1.67.67.67,0,0,0-.38-.45,1.64,1.64,0,0,1-.94-1.07,1.58,1.58,0,0,1,.54-1.28,1.54,1.54,0,0,0,.31-.44,4,4,0,0,1-.72-2.26,4.26,4.26,0,0,0-.68-2.27c-.75-.89-1.63-1-3.1-1.14-.39,0-.8-.08-1.25-.15-1.82-.26-2.13-1.6-2.38-2.69a4.71,4.71,0,0,0-.45-1.36c-.34-.56-.5-1.47.62-2.6A12.06,12.06,0,0,1,25.51,46a1,1,0,0,0,.34-.28,6.3,6.3,0,0,0-1.07-.46,1,1,0,0,1-.57-.52,4.16,4.16,0,0,1,.26-2.57.5.5,0,0,1,.11-.17,5.24,5.24,0,0,0,1.5-2.71,1.71,1.71,0,0,1,.77-1.48,3.25,3.25,0,0,1,2.95,0c.15.06.21,0,.24,0,.33-.19.57-1,.67-1.7a3.48,3.48,0,0,1-1.61-2.65A2.92,2.92,0,0,1,30,31.52a2.63,2.63,0,0,0,.79-1.82c0-1.38,1-2,2-2.56a6.07,6.07,0,0,0,2-1.58A3,3,0,0,1,37,24.26a4.24,4.24,0,0,1,3.14,1.25,3.3,3.3,0,0,1,.5,2.71l.27-.25a4.08,4.08,0,0,0,1.4-2.42.5.5,0,0,1,.62-.45l4.39,1.1c1.15.29,1.57,0,2-.77a.5.5,0,0,1,.33-.23.49.49,0,0,1,.4.09,22.82,22.82,0,0,1,5.91,30,.5.5,0,0,1-.76.11c-.95-.86-1.05-1.3-1.05-1.56,0-.1-.3-.32-.5-.47a3,3,0,0,1-1.47-2.51c0-1-.54-1.31-1.29-1.69a4.19,4.19,0,0,1-1-.66l-.24-.24a4.6,4.6,0,0,0-4.08-1.66,5.67,5.67,0,0,1,1.73,1.18c.76.78,1,1.29.92,1.78s-.75.82-1.47,1.08a8.66,8.66,0,0,0-1.44.63,2.7,2.7,0,0,0-.76.54.38.38,0,0,1-.26.28.54.54,0,0,1-.47,0,2.71,2.71,0,0,0-.78-.18c-1.59-.23-1.55-1.14-1.52-1.87a3.47,3.47,0,0,0-.24-1.68c-.16-.35-.37-.78-.6-1.24-1.08-2.14-1.8-3.73-1.23-4.65a1.29,1.29,0,0,1,1.19-.57h.51a4,4,0,0,0-2.43-1h0a2.36,2.36,0,0,1,.25,1.53c-.07.52-.19,1.09-.64,1.25s-.76-.15-1-.39a1.4,1.4,0,0,0-.73-.43,2.7,2.7,0,0,1-3-1.7c-.2-.45-.58-.42-1.86.15a7,7,0,0,1-1.06.4,14.16,14.16,0,0,0-2.35.95,1.82,1.82,0,0,0,.22.86c.79-.31,2.11-.14,4.09.52a11.84,11.84,0,0,0,4.78.8,3.13,3.13,0,0,1,1.7.42c1.08.67,1.32,2,1.62,3.67.06.31.12.64.18,1a3.07,3.07,0,0,1,0,1.77l.62.37a5.89,5.89,0,0,0,2.82.83c.55,0,1,.08,1.17.42a.74.74,0,0,1,.06.68,3.22,3.22,0,0,1-.6.92A7.74,7.74,0,0,0,43,59c-.38,2.38-.41,2.57-1.21,3a5.45,5.45,0,0,0-1.27.88A19.56,19.56,0,0,0,38,66.13a.5.5,0,0,1-.39.22Q37,66.38,36.36,66.38ZM32.23,65a22,22,0,0,0,5.05.38,19.39,19.39,0,0,1,2.58-3.21,6.38,6.38,0,0,1,1.48-1c.35-.18.35-.18.67-2.22a8.78,8.78,0,0,1,2.06-4.64l.29-.36-.22,0a6.85,6.85,0,0,1-3.27-1c-.4-.25-.66-.4-.82-.49s-.47-.27-.49-.57a.64.64,0,0,1,.25-.48c.14-.11.15-.6,0-1.26-.07-.34-.13-.67-.19-1-.27-1.49-.47-2.56-1.17-3a2.18,2.18,0,0,0-1.17-.27A12.89,12.89,0,0,1,32.2,45c-1.72-.57-2.9-.76-3.53-.55a.9.9,0,0,1-.83-.11c-.6-.43-.65-1.62-.65-2a.5.5,0,0,1,.27-.44,16.65,16.65,0,0,1,2.85-1.18,6.31,6.31,0,0,0,.89-.35c1-.44,2.51-1.11,3.17.35.51,1.11,1.09,1.15,2.08,1.12a2.18,2.18,0,0,1,1.41.66c0-.06,0-.14,0-.23A1.36,1.36,0,0,0,37.45,41a.65.65,0,0,1-.23-.72c.16-.37.4-.37,1.45-.37a5.55,5.55,0,0,1,3.7,1.73l.25.22a.47.47,0,0,1,.51.46.54.54,0,0,1-.48.53h-.23c-.17,0-.72,0-1.83,0-.1,0-.29,0-.34.1-.32.51.72,2.57,1.27,3.68.24.48.46.92.62,1.29a4.42,4.42,0,0,1,.33,2.13c0,.71,0,.74.66.83a6.39,6.39,0,0,1,.73.14,4.83,4.83,0,0,1,.9-.63,9.7,9.7,0,0,1,1.6-.71,3.07,3.07,0,0,0,.85-.39,2.79,2.79,0,0,0-.67-.83A5.66,5.66,0,0,0,44,47.1c-.38-.11-.77-.22-.75-.66s.24-.5,1.69-.76a5.61,5.61,0,0,1,5.42,1.87l.23.22a3.4,3.4,0,0,0,.79.49,2.68,2.68,0,0,1,1.83,2.58,2,2,0,0,0,1.07,1.72c.44.33.89.67.89,1.27h0a2,2,0,0,0,.28.38A21.83,21.83,0,0,0,49.86,26.4a2.41,2.41,0,0,1-2.8.76l-3.89-1a5.55,5.55,0,0,1-1.6,2.5l-1.46,1.37a.5.5,0,0,1-.82-.52c.36-1.08.63-2.82.12-3.33a3.29,3.29,0,0,0-2.36-1,2,2,0,0,0-1.51.9A7,7,0,0,1,33.26,28c-1,.58-1.51.92-1.51,1.69a3.61,3.61,0,0,1-1,2.45,2,2,0,0,0-.63,1.29c0,1.15,1.38,2,1.39,2a.5.5,0,0,1,.25.48c0,.36-.25,2.19-1.19,2.76a1.23,1.23,0,0,1-1.15.06,2.31,2.31,0,0,0-2,0,.71.71,0,0,0-.32.65c0,1.4-1.34,2.93-1.71,3.33a3.15,3.15,0,0,0-.25,1.71c.79.26,1.64.63,1.72,1.33,0,.44-.23.85-.82,1.2a11.28,11.28,0,0,0-2.1,1.5c-.81.81-.57,1.22-.47,1.38A5.52,5.52,0,0,1,24,51.4c.27,1.16.46,1.77,1.54,1.92l1.22.14c1.54.16,2.75.29,3.76,1.5a5.06,5.06,0,0,1,.91,2.79,3.38,3.38,0,0,0,.44,1.67c.65.74.05,1.43-.26,1.8-.1.11-.33.38-.32.46s0,.14.45.37a1.68,1.68,0,0,1,.86,1.1A2.65,2.65,0,0,1,32.23,65Zm2.35-29.74a2.57,2.57,0,0,1-.63-.12,1.41,1.41,0,0,1-1-1,2.92,2.92,0,0,1,.75-2.59s1.33-1.55,2-1.39a.52.52,0,0,1,.38.39.54.54,0,0,1-.15.5,2.18,2.18,0,0,1,.59,1.21,1.85,1.85,0,0,1-.57,1.5,3.18,3.18,0,0,0-.67.95C35.07,35.13,34.85,35.25,34.58,35.25ZM35,31.63a5.33,5.33,0,0,0-.56.58,2,2,0,0,0-.57,1.65.41.41,0,0,0,.32.29l.18,0a4.38,4.38,0,0,1,.79-1.11.89.89,0,0,0,.3-.7A1.36,1.36,0,0,0,35,31.63Z" fill="#989898"/><path d="M48.63,19.86c0,8.12-7.87,14.31-7.87,14.31s-7.87-7.37-7.87-14.31c0-4.85,3.1-8.78,7.87-8.78C45.92,11.08,48.63,15,48.63,19.86Z" fill="#d42166"/><circle cx="40.76" cy="17.98" r="3.57" fill="#fff"/></svg>