<svg id="Layer_1" data-name="Layer 1" xmlns="http://www.w3.org/2000/svg" viewBox="0 0 80 80"><title>Icon_foodora_page_Proof_Career_Vektor_VO1_MB</title><polygon points="16.01 12.71 16.01 26.61 27.08 26.66 27.08 12.71 16.01 12.71" fill="#d32066"/><path d="M27.41,27l-11.72,0V12.38H27.41Zm-11.07-.69,10.42,0V13H16.34Z" fill="#d32066"/><path d="M24.56,15.73h-1v-5a.51.51,0,0,0-.51-.51H20a.51.51,0,0,0-.51.5v5h-1v-5A1.51,1.51,0,0,1,20,9.19h3a1.51,1.51,0,0,1,1.51,1.51Z" fill="#d32066"/><path d="M27.17,59.38A12.58,12.58,0,1,1,39.74,46.8,12.59,12.59,0,0,1,27.17,59.38Zm0-24.15A11.58,11.58,0,1,0,38.74,46.8,11.59,11.59,0,0,0,27.17,35.22Z" fill="#969696"/><path d="M62.51,59.34A12.58,12.58,0,1,1,75.08,46.76,12.59,12.59,0,0,1,62.51,59.34Zm0-24.15A11.58,11.58,0,1,0,74.08,46.76,11.59,11.59,0,0,0,62.51,35.18Z" fill="#969696"/><path d="M45.28,47.3H27.17a.5.5,0,0,1-.46-.69l8.05-19.12v0l-2.59-5a.5.5,0,0,1,.89-.46l12.66,24.6a.5.5,0,0,1-.44.73Zm-17.36-1H44.46l-9.1-17.68Z" fill="#969696"/><path d="M45.28,47.3a.51.51,0,0,1-.19,0,.5.5,0,0,1-.27-.66l8.05-19.12a.5.5,0,1,1,.92.39L45.74,47A.5.5,0,0,1,45.28,47.3Z" fill="#969696"/><path d="M53.33,28.18H35.22a.5.5,0,0,1,0-1H53.33a.5.5,0,0,1,0,1Z" fill="#969696"/><path d="M34.21,30.19H14.08a.5.5,0,1,1,0-1H34.21a.5.5,0,0,1,0,1Z" fill="#969696"/><path d="M40.17,22.65H29.42S28,20.13,32.06,20.13s8.19,1.28,8.19,1.92S40.17,22.65,40.17,22.65Z" fill="#969696"/><path d="M62.39,47.3a.5.5,0,0,1-.45-.29L50.54,22.15H61.38a3.52,3.52,0,1,1,0,7H59.33a.5.5,0,0,1,0-1h2.05a2.52,2.52,0,1,0,0-5H52.1L62.84,46.59a.5.5,0,0,1-.25.66A.49.49,0,0,1,62.39,47.3Z" fill="#969696"/><path d="M45.28,49.78a3,3,0,1,1,3-3A3,3,0,0,1,45.28,49.78Zm0-5a2,2,0,1,0,2,2A2,2,0,0,0,45.28,44.74Z" fill="#969696"/></svg>