<svg id="Layer_1" data-name="Layer 1" xmlns="http://www.w3.org/2000/svg" viewBox="0 0 80 80"><title>Icon_foodora_page_Proof_HIW_Vektor_VO1_MB</title><polygon points="18.3 15.67 18.29 28.77 28.72 28.81 28.73 15.67 18.3 15.67" fill="#d32066"/><path d="M29.22,29.32l-11.43,0V15.17H29.23Zm-10.43-1,9.43,0V16.17H18.79Z" fill="#d32066"/><path d="M26.38,18.52h-1V13.77a.45.45,0,0,0-.45-.45H22.09a.45.45,0,0,0-.45.45v4.74h-1V13.77a1.45,1.45,0,0,1,1.45-1.44h2.84a1.45,1.45,0,0,1,1.45,1.45Z" fill="#d32066"/><path d="M28.8,59.67A11.88,11.88,0,1,1,40.68,47.79,11.89,11.89,0,0,1,28.8,59.67Zm0-22.76A10.88,10.88,0,1,0,39.68,47.79,10.89,10.89,0,0,0,28.8,36.92Z" fill="#969696"/><path d="M62.1,59.63A11.88,11.88,0,1,1,74,47.76,11.89,11.89,0,0,1,62.1,59.63Zm0-22.76A10.88,10.88,0,1,0,73,47.76,10.89,10.89,0,0,0,62.1,36.88Z" fill="#969696"/><path d="M45.87,48.29H28.8a.5.5,0,0,1-.46-.69l7.59-18h0L33.5,24.85a.5.5,0,0,1,.89-.46L46.32,47.57a.5.5,0,0,1-.44.73Zm-16.32-1h15.5L36.53,30.74Z" fill="#969696"/><path d="M45.87,48.29a.51.51,0,0,1-.19,0,.5.5,0,0,1-.27-.66l7.59-18a.5.5,0,1,1,.92.39L46.33,48A.5.5,0,0,1,45.87,48.29Z" fill="#969696"/><path d="M53.46,30.28H36.39a.5.5,0,0,1,0-1H53.46a.5.5,0,0,1,0,1Z" fill="#969696"/><path d="M35.44,32.17h-19a.5.5,0,0,1,0-1h19a.5.5,0,0,1,0,1Z" fill="#969696"/><path d="M41.06,25H30.93s-1.33-2.37,2.49-2.37,7.72,1.21,7.72,1.81S41.06,25,41.06,25Z" fill="#969696"/><path d="M62,48.29a.5.5,0,0,1-.45-.29L50.78,24.54H61a3.34,3.34,0,1,1,0,6.69H59.11a.5.5,0,1,1,0-1H61a2.34,2.34,0,1,0,0-4.69h-8.7l10.11,22a.5.5,0,0,1-.25.66A.49.49,0,0,1,62,48.29Z" fill="#969696"/><path d="M45.87,50.63a2.87,2.87,0,1,1,2.87-2.87A2.87,2.87,0,0,1,45.87,50.63Zm0-4.74a1.87,1.87,0,1,0,1.87,1.87A1.87,1.87,0,0,0,45.87,45.89Z" fill="#969696"/><path d="M16.32,23.1H10.47a.5.5,0,1,1,0-1h5.85a.5.5,0,0,1,0,1Z" fill="#969696"/><path d="M16.32,25.94H6.52a.5.5,0,0,1,0-1h9.8a.5.5,0,0,1,0,1Z" fill="#969696"/></svg>