<?xml version="1.0"?>
<svg xmlns="http://www.w3.org/2000/svg" fill="#969696" viewBox="0 0 512 512" width="512" height="512"><g id="Outline"><rect x="286.005" y="99.796" width="18.09" height="16" transform="translate(78.346 335.202) rotate(-66.45)"/><path d="M121.349,416a22.413,22.413,0,0,0,22.557-24.7A25.684,25.684,0,0,0,118.525,368a22.412,22.412,0,0,0-22.557,24.7A25.682,25.682,0,0,0,121.349,416Zm-7.8-29.934a6.634,6.634,0,0,1,4.98-2.066,9.819,9.819,0,0,1,9.443,8.7,6.745,6.745,0,0,1-1.64,5.231A6.631,6.631,0,0,1,121.349,400a9.819,9.819,0,0,1-9.443-8.7A6.748,6.748,0,0,1,113.545,386.066Z"/><path d="M476.37,432A19.652,19.652,0,0,0,496,412.37V379.63A19.652,19.652,0,0,0,476.37,360H464v-8a8,8,0,0,0-8-8H384a8,8,0,0,0-8,8v96H331.1l35.7-107.1L405.333,312H424.87a16.006,16.006,0,0,1,15.473,20.077l15.474,4.067a32,32,0,0,0-29.216-40.1l1.8-1.347,18.263-10.436a82.057,82.057,0,0,0,8.52-136.886l-59.1-45.547a44.892,44.892,0,0,0,.771-34.282,43.811,43.811,0,0,0-24.035-24.212L313.782,18.76a35.889,35.889,0,0,0-46.551,18.531,34.329,34.329,0,0,0-.4,26.709H182.64A66.856,66.856,0,0,0,151.7,71.621l7.434,14.168A50.784,50.784,0,0,1,182.64,80h88.983l-34.708,28.968a7.975,7.975,0,0,0-.235,12.062l-45.9,7.063a8,8,0,0,0-6.211,10.878l12.964,32.409-48.571,18.214-14.326-42.985a51.261,51.261,0,0,1,1.494-35.939,50.158,50.158,0,0,1,13.34-18.284L138.989,80.3a66.948,66.948,0,0,0-17.563,24.068,67.631,67.631,0,0,0-1.966,47.3l16.951,50.863,23.249,69.745-6.5,24.937,15.483,4.039,7.1-27.233a7.994,7.994,0,0,0-.152-4.55l-21.562-64.686,50.038-18.764,20.78,41.558a8,8,0,0,0,4.8,4.068l104,32a8,8,0,0,0,6.319-.7l48.657-27.8,25.233,50.464L355.2,329.6a8,8,0,0,0-2.789,3.87L314.234,448H304V424a8,8,0,0,0-8-8H222.807l-20.118-85.5A23.907,23.907,0,0,0,179.328,312H38.146a22.146,22.146,0,0,0-21.4,27.853l5.922,22.209,15.46-4.124-5.922-22.209A6.144,6.144,0,0,1,38.146,328H179.328a7.97,7.97,0,0,1,7.787,6.167l24.471,104A8,8,0,0,1,203.8,448H68.292a8.011,8.011,0,0,1-7.73-5.938L42,372.466l-15.46,4.123,18.559,69.6c.164.617.356,1.221.566,1.815H24a8,8,0,0,0-8,8v32a8,8,0,0,0,8,8H488a8,8,0,0,0,8-8V456a8,8,0,0,0-8-8H464V432ZM286.239,213.166a32.259,32.259,0,0,0,42.044-13.826l18.553-34.83,1.346,7.125-30.649,70.313-54.891-16.89L271,205.882ZM282.216,43.821c3.054-7.011,9.978-12.409,18.263-11.733,4.55.371,8.851,2.142,13.067,3.892l45.126,18.735c21.141,8.776,30.048,23.024,20.7,45.118Q369.66,122.8,359.463,145.56c.035-3.575-.77-7.327-3.143-10s-6.583-3.9-9.677-2.112c-2.05,1.188-3.258,3.39-4.365,5.484L317.3,186.167c-7.007,13.252-15.547,16.831-29.63,10.06l-31.07-14.94c-3.528-1.7-7.369-3.723-8.729-7.394-2.305-6.221,3.778-12.2,5.31-18.659a30.209,30.209,0,0,0,30.989.729l-9.72-12.794a16.824,16.824,0,0,1-14.84-2.66l3.492-7.969,32.847,13.707c4.443,1.854,7.51,1.5,11.506-1.281l32.688-22.79c3.582-2.5,7.26-5.094,9.586-8.789a16.892,16.892,0,0,0-2.68-20.674c-2.905-2.713-6.674-4.268-10.353-5.768L299.473,71.777c-5.525-2.252-11.287-4.673-15.079-9.28C279.821,56.94,279.613,49.8,282.216,43.821Zm8.211,41.326,45.462,18.927a1.017,1.017,0,0,1-.136,1.544l-35.665,25L257.3,112.8Zm-87.26,57.229,40.939-6.3L233.5,160.4a25.54,25.54,0,0,0-.291,19.884A25.868,25.868,0,0,0,247.2,194.5l9.358,4.474-9.3,21.347-9.626-2.963ZM335.039,247.335l-2.116-.651,33.2-76.168,37.215,36.309Zm67.275-20.6,18.124-12.083a8,8,0,0,0,1.149-12.383l-48.629-47.444,16.132-37.014,56.49,42.365a66.046,66.046,0,0,1-6.859,110.194l-11.347,6.484ZM476.37,376a3.634,3.634,0,0,1,3.63,3.63v32.74a3.634,3.634,0,0,1-3.63,3.63H464V376ZM227.16,434.5l-.589-2.5H288v16H226.434A23.886,23.886,0,0,0,227.16,434.5ZM480,480H32V464H480Zm-88-32V360h56v88Z"/></g></svg>
