<svg id="Layer_1" data-name="Layer 1" xmlns="http://www.w3.org/2000/svg" viewBox="0 0 80 80"><title>Icon_foodora_page_Proof_HIW_Vektor_VO1_MB</title><path d="M28.07,22.77h0a.5.5,0,0,1-.49-.51l.1-8.85A2.44,2.44,0,0,1,30.09,11H41.68a2.43,2.43,0,0,1,2.43,2.43v8.63a.5.5,0,0,1-1,0V13.43A1.43,1.43,0,0,0,41.68,12H30.09a1.43,1.43,0,0,0-1.43,1.42l-.1,8.86A.5.5,0,0,1,28.07,22.77Z" fill="#969696"/><polygon points="42.66 58.29 19.93 58.29 19.93 18.73 51.75 18.73 51.75 43.04 50.75 43.04 50.75 19.73 20.93 19.73 20.93 57.29 42.66 57.29 42.66 58.29" fill="#969696"/><rect x="20.43" y="43.29" width="26.26" height="1" fill="#969696"/><path d="M58.47,55.53H40.84a.52.52,0,0,0-.39.2A1.61,1.61,0,0,0,40.52,57c.6,1.7.82,1.7,1.67,1.7H57.11c.86,0,1.08,0,1.67-1.7.22-.62.24-1.09.07-1.32A.52.52,0,0,0,58.47,55.53Z" fill="#d51a65"/><path d="M42.11,49.51H57.36c.41,0,1.34-.11,1.55-.52.3-.61-.15-2.38-1.55-3.77a11.34,11.34,0,0,0-7.58-2.52h-.1a11.32,11.32,0,0,0-7.55,2.52c-1.4,1.39-1.85,3.16-1.55,3.77C40.77,49.39,41.69,49.52,42.11,49.51Z" fill="#d51a65"/><path d="M58.44,52.49H51c-.15,0-.19,0-.36.31a1.53,1.53,0,0,1-1.39.88A1.39,1.39,0,0,1,48.07,53a1,1,0,0,0-.89-.49c-.47,0-.63.22-.91.66a1.65,1.65,0,0,1-1.47,1,1.6,1.6,0,0,1-1.54-1.1c-.22-.44-.33-.61-.76-.6H40.85a1.12,1.12,0,0,0,0,2.24H58.42a1.12,1.12,0,0,0,0-2.24Z" fill="#d51a65"/><path d="M59.15,51.61a.52.52,0,0,0,.42-.58c0-.47-.3-.62-.42-.62H40a.52.52,0,0,0-.42.58c0,.47.3.62.42.62h2.53a1.42,1.42,0,0,1,1.34,1c.21.41.34.69.9.7s.58-.23.85-.66a1.66,1.66,0,0,1,1.52-1,1.64,1.64,0,0,1,1.44.76c.21.27.31.37.63.39a.83.83,0,0,0,.8-.53,1.09,1.09,0,0,1,1-.66h8.12Z" fill="#d51a65"/></svg>