<svg id="Layer_1" data-name="Layer 1" xmlns="http://www.w3.org/2000/svg" viewBox="0 0 80 80"><title>Icon_foodora_page_Proof_HIW_Vektor_VO1_MB</title><path d="M48.42,20.58H21.09a.5.5,0,0,1,0-1H48.42a.5.5,0,0,1,0,1Z" fill="#969696"/><path d="M48.4,56.45H21.11a.5.5,0,1,1,0-1H48.4a.5.5,0,0,1,0,1Z" fill="#969696"/><path d="M37.24,17.76h-5a.5.5,0,0,1,0-1h5a.5.5,0,0,1,0,1Z" fill="#969696"/><circle cx="34.75" cy="60.02" r="1.05" fill="#fff"/><path d="M34.75,61.57A1.55,1.55,0,1,1,36.31,60,1.55,1.55,0,0,1,34.75,61.57Zm0-2.1a.55.55,0,1,0,.55.55A.55.55,0,0,0,34.75,59.47Z" fill="#989898"/><path d="M54.41,38.58c1.48,0,1.5-.41,1.78-1.09s2.11-6.23,2.58-7.57c.76-2.15.62-2.18.62-2.18H40.25l-.59-2.53a.85.85,0,0,0-.79-.65H34a.9.9,0,0,0-.9.9v.65a.9.9,0,0,0,.9.9H37.9l.42,1.77h0l2.16,9.36h0l.1.44h0L40.91,40a2.85,2.85,0,1,0,4.76,2.69h5.84a2.86,2.86,0,1,0,.62-2.49H45a2.85,2.85,0,0,0-2-1l-.15-.66Z" fill="#d81e6c"/><path d="M35.88,33.59h-5.8a.5.5,0,0,1,0-1h5.8a.5.5,0,0,1,0,1Z" fill="#8d9091"/><path d="M37.3,36.63H28.89a.5.5,0,0,1,0-1H37.3a.5.5,0,0,1,0,1Z" fill="#8d9091"/><path d="M48.92,44.8V59.92a4.81,4.81,0,0,1-4.81,4.81H25.4a4.81,4.81,0,0,1-4.81-4.81V17.68a4.4,4.4,0,0,1,4.4-4.4H44.65a4.27,4.27,0,0,1,4.27,4.27v8.4h-1V17.54a3.27,3.27,0,0,0-3.27-3.27H25a3.4,3.4,0,0,0-3.4,3.4V59.92a3.81,3.81,0,0,0,3.81,3.81H44.11a3.81,3.81,0,0,0,3.81-3.81V44.8Z" fill="#969696"/></svg>