<?xml version="1.0" encoding="iso-8859-1"?>
<!-- Generator: Adobe Illustrator 19.0.0, SVG Export Plug-In . SVG Version: 6.00 Build 0)  -->
<svg version="1.1" id="Capa_1" xmlns="http://www.w3.org/2000/svg" xmlns:xlink="http://www.w3.org/1999/xlink" x="0px" y="0px"
	 viewBox="0 0 512.002 512.002" style="enable-background:new 0 0 512.002 512.002;" xml:space="preserve">
<g>
	<g>
		<path d="M20.429,184.236c-5.344-1.394-10.806,1.807-12.201,7.15c-0.128,0.49-0.254,0.982-0.378,1.474
			c-1.358,5.353,1.881,10.793,7.234,12.152c0.825,0.209,1.652,0.309,2.466,0.309c4.467,0,8.537-3.015,9.686-7.543l0.344-1.341
			C28.975,191.092,25.773,185.63,20.429,184.236z"/>
	</g>
</g>
<g>
	<g>
		<path d="M338.385,13.549C311.922,4.56,284.204,0.001,256.001,0.001c-49.493,0-97.521,14.149-138.892,40.918
			c-40.288,26.068-72.374,62.737-92.79,106.043c-2.354,4.996-0.214,10.955,4.782,13.309c1.378,0.65,2.829,0.957,4.257,0.957
			c3.751,0,7.347-2.12,9.052-5.737c18.099-38.393,46.001-70.445,79.849-93.722c0.33,0.17,0.67,0.327,1.025,0.462l61.101,23.245
			c1.431,0.545,2.354,1.938,2.299,3.467c-0.044,1.237,0.142,2.473,0.548,3.643c3.296,9.481,10.53,17.063,19.847,20.799
			c9.318,3.735,19.785,3.252,28.719-1.324c0.037-0.019,0.074-0.038,0.111-0.058l13.276-7.014c14.764-7.8,31.805-6.827,45.584,2.608
			c13.781,9.435,20.856,24.971,18.924,41.562l-0.123,1.053c-0.749,6.432-5.188,11.521-11.31,12.966
			c-6.612,1.562-14.143,3.356-20.595,4.899c-13.077,3.127-23.247,13.663-25.909,26.843l-8.582,42.489
			c-2.02,9.998,0.445,20.326,6.762,28.336c6.316,8.01,15.786,12.814,25.98,13.181l11.013,0.396c1.895,0.068,3.732,0.496,5.463,1.27
			c1.326,0.593,2.712,0.874,4.076,0.874c3.823-0.001,7.473-2.205,9.135-5.921c2.254-5.042-0.005-10.957-5.047-13.211
			c-4.089-1.828-8.431-2.837-12.907-2.998l-11.013-0.396c-4.314-0.155-8.322-2.188-10.996-5.579
			c-2.673-3.39-3.716-7.761-2.861-11.992l8.582-42.489c1.125-5.572,5.426-10.028,10.956-11.351
			c6.436-1.539,13.946-3.328,20.54-4.886c14.191-3.35,24.873-15.453,26.581-30.119l0.123-1.053
			c2.806-24.1-7.472-46.67-27.492-60.377c-20.019-13.705-44.776-15.122-66.226-3.788l-13.214,6.981
			c-3.824,1.942-8.122,2.133-12.104,0.534c-3.566-1.43-6.324-4.069-7.884-7.51c-0.58-9.146-6.441-17.216-15.142-20.527
			l-47.766-18.172c33.931-18.398,72.417-28.61,112.268-28.61c26.01,0,51.563,4.2,75.95,12.485
			c5.231,1.777,10.909-1.022,12.686-6.252C346.413,21.006,343.614,15.326,338.385,13.549z"/>
	</g>
</g>
<g>
	<g>
		<path d="M502.059,185.122c-1.526-5.308-7.067-8.374-12.373-6.847c-5.308,1.526-8.373,7.066-6.847,12.374
			c6.08,21.144,9.163,43.131,9.163,65.352c0,24.196-3.646,48.053-10.834,70.906c-1.657,5.269,1.27,10.883,6.538,12.54
			c0.999,0.314,2.009,0.464,3.004,0.464c4.25,0,8.193-2.732,9.536-7.002c7.8-24.799,11.755-50.674,11.755-76.908
			C512.001,231.91,508.656,208.063,502.059,185.122z"/>
	</g>
</g>
<g>
	<g>
		<path d="M474.108,370.539c-4.219-2.499-10.541-1.793-13.819,3.708c-0.019,0.032-0.038,0.064-0.057,0.097
			c-3.217,5.538-0.762,11.407,3.47,13.881c1.5,0.877,3.261,1.351,5.056,1.351c3.269,0,6.646-1.571,8.743-5.136
			C480.749,378.919,478.326,373.037,474.108,370.539z"/>
	</g>
</g>
<g>
	<g>
		<path d="M446.029,412.553c-4.115-3.683-10.437-3.334-14.121,0.782c-13.664,15.266-29.141,28.531-45.948,39.612
			c-11.532-5.207-23.613-17.552-22.43-36.899l6.31-74.748c0.465-5.503-3.62-10.341-9.123-10.806
			c-5.5-0.447-10.341,3.62-10.806,9.124l-6.319,74.857c-0.006,0.069-0.011,0.139-0.016,0.208
			c-1.258,19.841,7.57,38.318,22.852,49.829c-33.693,17.837-71.563,27.489-110.427,27.489c-10.881,0-21.724-0.76-32.444-2.244
			l9.327-16.936h8.159c21.188,0,38.425-17.237,38.425-38.425v-13.803c0-3.935,1.227-7.694,3.549-10.871
			c3.259-4.459,2.286-10.716-2.173-13.975c-4.46-3.258-10.716-2.286-13.974,2.174c-4.842,6.626-7.401,14.466-7.401,22.672v13.803
			c0,10.159-8.265,18.425-18.425,18.425h-14.068c-3.645,0-7.001,1.983-8.759,5.176l-15.39,27.945
			c-21.584-4.975-42.421-12.96-61.776-23.777c-4.824-2.692-10.914-0.97-13.608,3.852c-2.694,4.822-0.97,10.913,3.851,13.607
			c37.905,21.182,81.028,32.378,124.708,32.378c72.726,0,142.273-31.101,190.809-85.328
			C450.494,422.558,450.144,416.236,446.029,412.553z"/>
	</g>
</g>
<g>
	<g>
		<path d="M428.168,42.884c-23.229,0-42.127,18.898-42.127,42.127s18.898,42.128,42.127,42.128s42.127-18.898,42.127-42.128
			C470.295,61.782,451.397,42.884,428.168,42.884z M428.168,107.139c-12.201,0-22.127-9.927-22.127-22.128
			s9.926-22.127,22.127-22.127s22.127,9.926,22.127,22.127S440.369,107.139,428.168,107.139z"/>
	</g>
</g>
<g>
	<g>
		<path d="M244.205,339.941l-43.781-63.096c-0.456-0.657-0.983-1.234-1.554-1.745c-11.15-43.644-50.8-76.01-97.869-76.01
			c-55.691,0-101,45.309-101,101c0,23.066,7.977,45.606,22.467,63.507c0.023,0.031,0.047,0.062,0.071,0.093l70.578,90.463
			c1.895,2.429,4.803,3.849,7.883,3.849c3.08,0,5.988-1.419,7.883-3.847l70.241-89.989c0.141-0.18,0.273-0.362,0.399-0.548
			c11.782-14.55,19.256-32.143,21.646-50.617l26.604,38.342c1.942,2.799,5.057,4.3,8.225,4.3c1.967,0,3.954-0.579,5.692-1.785
			C246.228,350.71,247.354,344.479,244.205,339.941z M163.48,351.643c-0.253,0.306-0.486,0.626-0.697,0.956l-61.779,79.147
			l-62.498-80.105c-0.104-0.143-0.212-0.282-0.324-0.42c-11.724-14.385-18.181-32.543-18.181-51.131c0-44.663,36.336-81,81-81
			s81,36.337,81,81C182.001,318.878,175.423,337.187,163.48,351.643z"/>
	</g>
</g>
<g>
	<g>
		<path d="M101.001,243.542c-31.981,0-58,26.019-58,58c0,31.981,26.019,58,58,58s58-26.019,58-58
			C159.001,269.561,132.983,243.542,101.001,243.542z M101.001,339.542c-20.953,0-38-17.047-38-38s17.047-38,38-38s38,17.047,38,38
			S121.955,339.542,101.001,339.542z"/>
	</g>
</g>
<g>
	<g>
		<path d="M428.168,0c-46.226,0-83.833,37.607-83.833,83.833c0,19.134,6.613,37.832,18.627,52.687
			c0.019,0.024,0.039,0.05,0.058,0.075l57.264,73.397c1.895,2.429,4.803,3.849,7.883,3.849c0,0,0,0,0.001,0
			c3.08,0,5.988-1.419,7.883-3.847l56.991-73.013c0.123-0.157,0.24-0.316,0.352-0.479c12.005-14.857,18.607-33.525,18.607-52.669
			C512.001,37.607,474.394,0,428.168,0z M477.406,124.459c-0.235,0.284-0.452,0.579-0.651,0.883l-48.585,62.244l-49.199-63.061
			c-0.099-0.135-0.203-0.269-0.31-0.399c-9.238-11.335-14.326-25.645-14.326-40.293C364.335,48.636,392.97,20,428.168,20
			s63.833,28.636,63.833,63.833C492.001,98.639,486.818,113.066,477.406,124.459z"/>
	</g>
</g>
<g>
	<g>
		<path d="M203.259,417.295c-2.36-4.993-8.32-7.126-13.314-4.77l-4.521,2.136c-4.994,2.359-7.129,8.319-4.771,13.313
			c1.708,3.614,5.301,5.73,9.049,5.73c1.431,0,2.885-0.309,4.265-0.96l4.521-2.136C203.482,428.249,205.617,422.289,203.259,417.295
			z"/>
	</g>
</g>
<g>
	<g>
		<path d="M428.168,254.1c-5.523,0-10,4.478-10,10c0,1.29-0.073,2.591-0.217,3.865c-0.621,5.488,3.326,10.439,8.813,11.06
			c0.382,0.043,0.76,0.064,1.135,0.064c5.02,0,9.348-3.771,9.924-8.878c0.228-2.018,0.344-4.073,0.344-6.111
			C438.168,258.577,433.691,254.1,428.168,254.1z"/>
	</g>
</g>
<g>
	<g>
		<path d="M363.258,298.001h-5c-5.523,0-10,4.478-10,10c0,5.522,4.477,10,10,10h5c5.523,0,10-4.478,10-10
			C373.258,302.479,368.781,298.001,363.258,298.001z"/>
	</g>
</g>
<g>
	<g>
		<path d="M415.616,296.418c-2.872-4.716-9.024-6.21-13.742-3.341c-1.094,0.667-2.24,1.277-3.406,1.817
			c-5.012,2.319-7.195,8.264-4.875,13.275c1.69,3.652,5.305,5.802,9.082,5.802c1.406,0,2.834-0.298,4.194-0.927
			c1.85-0.856,3.668-1.826,5.406-2.884C416.992,307.288,418.488,301.136,415.616,296.418z"/>
	</g>
</g>
<g>
	<g>
		<path d="M264.868,356.449c-4.659-2.963-10.84-1.586-13.803,3.074l-2.683,4.22c-2.963,4.661-1.587,10.841,3.074,13.805
			c1.664,1.058,3.52,1.562,5.355,1.562c3.307,0,6.543-1.639,8.448-4.636l2.683-4.22
			C270.905,365.593,269.529,359.413,264.868,356.449z"/>
	</g>
</g>
<g>
	<g>
		<path d="M289.011,318.475c-4.66-2.962-10.84-1.587-13.804,3.073l-2.682,4.219c-2.963,4.661-1.587,10.841,3.074,13.804
			c1.664,1.058,3.521,1.563,5.356,1.563c3.307,0,6.542-1.639,8.448-4.636l2.682-4.219
			C295.047,327.617,293.671,321.438,289.011,318.475z"/>
	</g>
</g>
<g>
	<g>
		<path d="M243.948,398.075c-2.361-4.994-8.321-7.128-13.314-4.77l-4.521,2.136c-4.994,2.359-7.129,8.319-4.771,13.313
			c1.708,3.614,5.301,5.73,9.049,5.73c1.431,0,2.885-0.309,4.265-0.96l4.521-2.136C244.171,409.029,246.306,403.069,243.948,398.075
			z"/>
	</g>
</g>
<g>
	<g>
		<path d="M318.258,298.001h-5c-5.523,0-10,4.478-10,10c0,5.522,4.477,10,10,10h5c5.523,0,10-4.478,10-10
			C328.258,302.479,323.781,298.001,318.258,298.001z"/>
	</g>
</g>
<g>
</g>
<g>
</g>
<g>
</g>
<g>
</g>
<g>
</g>
<g>
</g>
<g>
</g>
<g>
</g>
<g>
</g>
<g>
</g>
<g>
</g>
<g>
</g>
<g>
</g>
<g>
</g>
<g>
</g>
</svg>
