<svg xmlns="http://www.w3.org/2000/svg" xmlns:xlink="http://www.w3.org/1999/xlink" width="24" height="24" fill="#c8102e"
 viewBox="0 0 24 24">
 <path
  d="M11.5019729,10.437 C10.6179695,10.2097116 10,9.41275517 10,8.5 C10,7.58724483 10.6179695,6.79028841 11.5019729,6.563 L11.5019729,4 L12.5019729,4 L12.5019729,6.563 C13.3859763,6.79028841 14.0039458,7.58724483 14.0039458,8.5 C14.0039458,9.41275517 13.3859763,10.2097116 12.5019729,10.437 L12.5019729,21 L11.5019729,21 L11.5019729,10.437 Z M6.50197289,11.563 C7.38597628,11.7902884 8.00394578,12.5872448 8.00394578,13.5 C8.00394578,14.4127552 7.38597628,15.2097116 6.50197289,15.437 L6.50197289,21 L5.50197289,21 L5.50197289,15.437 C4.61796951,15.2097116 4,14.4127552 4,13.5 C4,12.5872448 4.61796951,11.7902884 5.50197289,11.563 L5.50197289,4 L6.50197289,4 L6.50197289,11.563 Z M18.5019729,14.563 C19.3859763,14.7902884 20.0039458,15.5872448 20.0039458,16.5 C20.0039458,17.4127552 19.3859763,18.2097116 18.5019729,18.437 L18.5019729,21 L17.5019729,21 L17.5019729,18.437 C16.6179695,18.2097116 16,17.4127552 16,16.5 C16,15.5872448 16.6179695,14.7902884 17.5019729,14.563 L17.5019729,4 L18.5019729,4 L18.5019729,14.563 Z M18.0019729,17.5 C18.5542576,17.5 19.0019729,17.0522847 19.0019729,16.5 C19.0019729,15.9477153 18.5542576,15.5 18.0019729,15.5 C17.4496881,15.5 17.0019729,15.9477153 17.0019729,16.5 C17.0019729,17.0522847 17.4496881,17.5 18.0019729,17.5 Z M6.00197289,14.5 C6.55425764,14.5 7.00197289,14.0522847 7.00197289,13.5 C7.00197289,12.9477153 6.55425764,12.5 6.00197289,12.5 C5.44968814,12.5 5.00197289,12.9477153 5.00197289,13.5 C5.00197289,14.0522847 5.44968814,14.5 6.00197289,14.5 Z M12.0019729,9.5 C12.5542576,9.5 13.0019729,9.05228475 13.0019729,8.5 C13.0019729,7.94771525 12.5542576,7.5 12.0019729,7.5 C11.4496881,7.5 11.0019729,7.94771525 11.0019729,8.5 C11.0019729,9.05228475 11.4496881,9.5 12.0019729,9.5 Z">
 </path>
</svg>